<svg width="59" height="67" viewBox="0 0 59 67" fill="none" xmlns="http://www.w3.org/2000/svg">
<g clip-path="url(#clip0)">
<path d="M29.0323 66.0089C13.0344 66.0089 0.0194092 51.2033 0.0194092 33.0044C0.0194092 14.8055 13.0344 0 29.0323 0C45.0302 0 58.0452 14.8055 58.0452 33.0044C58.0452 51.2033 45.0302 66.0089 29.0323 66.0089ZM29.0323 4.74933C15.3336 4.74933 4.19436 17.428 4.19436 33.0044C4.19436 48.5809 15.3336 61.2595 29.0323 61.2595C42.7249 61.2595 53.8703 48.5809 53.8703 33.0044C53.8703 17.428 42.7249 4.74933 29.0323 4.74933Z" fill="#99FFFF"/>
<path d="M29.0323 50.6804C26.6665 50.6804 24.4883 50.233 22.5036 49.3313C20.519 48.4365 18.8006 47.1563 17.3485 45.5112C15.8963 43.8593 14.777 41.9045 13.9904 39.6468C13.2038 37.3892 12.8044 34.9113 12.8044 32.22C12.8044 29.5287 13.1977 27.0508 13.9904 24.7931C14.777 22.5355 15.9024 20.5807 17.3485 18.9287C18.8006 17.2768 20.519 16.0034 22.5036 15.1086C24.4883 14.2138 26.6665 13.7595 29.0323 13.7595C31.3981 13.7595 33.5764 14.2069 35.561 15.1086C37.5456 16.0034 39.264 17.2837 40.7101 18.9287C42.1622 20.5807 43.2816 22.5355 44.0682 24.7931C44.8548 27.0508 45.2541 29.5287 45.2541 32.22C45.2541 34.4776 44.9758 36.4737 44.4191 38.2083C43.8625 39.9428 43.1001 41.3125 42.132 42.3037C41.1639 43.3018 40.0385 43.7973 38.7557 43.7973C37.5819 43.7973 36.6138 43.4394 35.8574 42.7236C35.1011 42.0077 34.7199 41.0166 34.7199 39.757V38.1188C34.3145 38.9448 33.7881 39.6813 33.1347 40.342C32.4812 40.9959 31.7733 41.5053 31.0048 41.8701C30.2364 42.2349 29.468 42.4138 28.6995 42.4138C27.0114 42.4138 25.5229 41.9733 24.2341 41.1061C22.9453 40.2319 21.9288 39.0342 21.1907 37.4993C20.4525 35.9713 20.0894 34.2092 20.0894 32.22C20.0894 30.2308 20.4706 28.4687 21.2391 26.9406C22.0075 25.4126 23.0664 24.2081 24.4096 23.3339C25.7529 22.4598 27.2897 22.0261 29.0202 22.0261C30.7688 22.0261 32.3178 22.4598 33.6611 23.3339C35.0043 24.2081 36.0632 25.4057 36.8316 26.9406C37.6 28.4687 37.9812 30.2308 37.9812 32.22V38.05C37.9812 38.6557 38.0659 39.1306 38.2354 39.4679C38.4048 39.8051 38.6831 39.9772 39.0643 39.9772C39.5786 39.9772 40.0506 39.6468 40.4862 38.9929C40.9219 38.3391 41.2728 37.4236 41.5269 36.2466C41.781 35.0696 41.9081 33.7274 41.9081 32.22C41.9081 30.0587 41.5935 28.0901 40.9642 26.3005C40.3349 24.5178 39.4455 22.9691 38.2898 21.6544C37.1402 20.3466 35.7788 19.3279 34.2056 18.6121C32.6385 17.8963 30.902 17.5383 29.0021 17.5383C27.1264 17.5383 25.3959 17.8963 23.8166 18.6121C22.2374 19.3279 20.87 20.3398 19.7203 21.6544C18.5707 22.9622 17.6752 24.5109 17.046 26.3005C16.4167 28.0832 16.1021 30.0587 16.1021 32.22C16.1021 34.3537 16.4167 36.3223 17.046 38.1188C17.6752 39.9153 18.5647 41.4709 19.7203 42.7786C20.87 44.0864 22.2374 45.1051 23.8166 45.821C25.3959 46.5368 27.1264 46.8947 29.0021 46.8947C29.8552 46.8947 30.7809 46.7777 31.7733 46.5506C32.7656 46.3234 33.6127 46.0206 34.3206 45.6558C35.0467 45.2428 35.6396 45.1946 36.0995 45.5112C36.5593 45.8279 36.7892 46.4336 36.7892 47.3284C36.7892 47.9823 36.4565 48.5604 35.7969 49.056C35.1374 49.5516 34.2177 49.9508 33.0439 50.2399C31.8943 50.5359 30.545 50.6804 29.0323 50.6804ZM29.0323 38.5937C30.1396 38.5937 31.1137 38.3184 31.9427 37.7746C32.7777 37.2309 33.4311 36.4737 33.9091 35.517C34.3871 34.5602 34.6292 33.4589 34.6292 32.22C34.6292 30.9604 34.3871 29.8522 33.9091 28.9092C33.4251 27.9662 32.7716 27.216 31.9427 26.6722C31.1137 26.1216 30.1396 25.8531 29.0323 25.8531C27.925 25.8531 26.9509 26.1284 26.1219 26.6722C25.293 27.216 24.6335 27.9662 24.1555 28.9092C23.6775 29.8522 23.4354 30.9604 23.4354 32.22C23.4354 33.4589 23.6775 34.5602 24.1555 35.517C24.6335 36.4737 25.293 37.2309 26.1219 37.7746C26.9509 38.3184 27.925 38.5937 29.0323 38.5937Z" fill="#99FFFF" stroke="#99FFFF" stroke-width="0.642722"/>
</g>
<defs>
<clipPath id="clip0">
<rect width="58.0258" height="66.0089" fill="white" transform="translate(0.0194092)"/>
</clipPath>
</defs>
</svg>
