<svg width="87" height="81" viewBox="0 0 87 81" fill="none" xmlns="http://www.w3.org/2000/svg">
<path d="M52.0835 80.0752C55.8556 80.3358 56.2527 79.5665 56.9723 79.1694C59.3547 77.8417 61.2656 74.3922 61.2656 74.3922C62.4692 70.918 62.159 71.2033 62.2086 69.3049C62.2955 66.0291 61.005 62.8899 60.1116 59.763C60.0992 59.7258 60.1116 57.8273 59.6401 52.1816C59.6401 52.1816 61.6626 49.6131 63.8713 49.2905C66.6631 48.8934 69.4674 50.1715 73.3636 50.1094C77.2473 50.0474 79.0465 49.5759 79.5801 49.3401C80.399 48.9679 82.5953 48.7321 83.9726 46.7592C87.0498 42.3791 84.2828 38.7187 83.9477 38.2224C84.2952 37.9122 86.5038 34.7357 86.6279 34.0532C86.814 33.0357 87.1242 31.981 86.206 28.9534C85.8338 27.725 84.928 26.9433 84.258 26.3725C84.4193 26.0375 85.3375 23.2209 85.2382 21.4217C85.201 20.6524 85.1389 19.5356 84.6054 18.3568C83.65 16.1978 81.7391 15.1307 80.9077 14.7213C81.007 14.3242 81.3544 11.3462 81.0442 9.98132C81.0442 9.98132 80.5603 7.8347 78.9472 6.07274C76.813 3.7524 73.7606 3.30571 71.8994 3.06996C62.1714 1.84155 56.749 2.30064 56.749 2.30064C51.9967 2.71011 44.9984 3.24367 35.7419 3.70277C33.2975 14.3366 30.8531 24.9704 28.4087 35.6042C29.2152 35.9641 29.8232 36.3984 30.2203 36.721C30.6422 37.0684 31.5604 37.8377 32.1684 39.0909C32.5778 39.9471 32.6647 40.6544 32.7267 40.977C33.1486 43.2849 35.6303 44.6994 37.5411 46.4242C38.9432 47.6898 39.1542 50.0598 41.7971 54.7997C43.3109 57.5047 43.9562 59.6141 44.862 61.5746C47.6662 67.5553 46.202 66.2277 47.3808 68.1633C47.6166 68.548 48.1749 74.1565 48.0757 75.2732C47.9764 76.6381 48.1998 79.8022 52.0835 80.0752Z" fill="#D3CBFF"/>
<path d="M6.57045 32.1548C9.38711 32.13 12.2038 32.1052 15.0204 32.0803C15.2562 32.0307 15.6532 31.9066 16.0627 31.6585C16.0627 31.6585 16.9065 31.1497 17.5269 30.0578C18.1845 28.8914 19.1151 25.3427 19.7604 20.4911C21.0136 14.5103 22.2792 8.52959 23.5324 2.54884C23.4828 2.32549 23.3463 1.86639 22.9741 1.43211C22.5274 0.92337 22.0062 0.737244 21.7829 0.662796C15.3182 0.687611 8.84115 0.712429 2.37648 0.737246C2.09109 0.811695 1.59476 0.99782 1.25974 1.43211C0.751006 2.11456 0.875088 3.00795 0.924721 3.33056C1.13566 4.89399 2.37648 15.5402 4.13844 30.2067C4.21289 30.4549 4.38661 30.9512 4.8333 31.3979C5.50334 32.0679 6.33469 32.1424 6.57045 32.1548Z" fill="#D3CBFF"/>
</svg>
