<svg width="202" height="181" viewBox="0 0 202 181" fill="none" xmlns="http://www.w3.org/2000/svg">
<path d="M178.703 145.1L178.703 147.36L181.493 147.36L181.493 145.1L178.703 145.1Z" fill="black"/>
<path d="M61.33 137.46H58.54C58.54 137.46 58.54 153.52 58.54 153.57C58.54 155.34 57.19 156.78 55.53 156.78C54.88 156.78 54.29 156.56 53.8 156.19V157.79C54.59 158.72 55.71 159.3 56.95 159.3C59.34 159.3 61.33 157.13 61.33 154.48C61.33 154.19 61.33 153.75 61.32 153.41L61.33 137.46Z" fill="black"/>
<path d="M82.84 144.65C82.85 144.14 82.78 143.6 82.63 143.06C82.01 140.82 80.19 139.3 78.37 139.38H73.57V139.44H73.53V159.16H76.32V142.26C76.62 142.27 76.88 142.3 77.08 142.35C77.61 142.47 79.68 142.72 80.06 144.8C80.16 145.33 80.06 159.17 80.06 159.17H82.85L82.84 144.65Z" fill="black"/>
<path d="M111.49 153.88C111.48 154.39 111.55 154.93 111.7 155.47C112.32 157.71 114.14 159.23 115.96 159.15H120.76V159.09H120.8V139.37H118.01V156.27C117.71 156.26 117.45 156.23 117.25 156.18C116.72 156.06 114.65 155.81 114.27 153.73C114.17 153.2 114.27 139.36 114.27 139.36H111.48L111.49 153.88Z" fill="black"/>
<path d="M71.31 143.06C71.31 143.02 71.29 142.84 71.28 142.76C71.08 140.98 69.75 139.67 68.31 139.38C67.2 138.94 64.63 139.08 64.63 139.08V141.92C64.63 141.92 66.46 141.78 67.59 142.23C67.75 142.29 68.12 142.62 68.25 142.86C68.34 143.02 68.4 143.15 68.42 143.36C68.43 143.41 68.44 144.28 68.45 145.89C68.2 145.88 67.94 145.88 67.9 145.88C66.79 145.9 65.51 146.02 64.47 147.28C63.44 148.53 63.31 150.66 63.31 152.62C63.31 156.15 64.76 158.89 67.9 159.05C68.26 159.07 68.41 159.06 68.65 159.05C68.66 159.05 68.66 159.05 68.67 159.05H71.19C71.26 159.05 71.31 158.99 71.31 158.92V143.07V143.06ZM66.04 152.55C66.04 151.5 66.11 150.17 66.5 149.34C66.85 148.6 67.64 148.36 68.47 148.43C68.49 151.34 68.52 154.5 68.54 156.66C67.12 156.9 66.04 154.75 66.04 152.55Z" fill="black"/>
<path d="M128.58 156.11C128.56 156.09 128.55 156.06 128.53 156.03V156.11H127.67C127.03 155.98 125.15 155.65 124.79 153.69C124.72 153.32 124.75 146.47 124.77 142.37L129.01 142.38L129.02 139.4L124.79 139.39V135.76H122V139.33V139.99V153.84C121.99 154.35 122.06 154.89 122.21 155.43C122.83 157.67 124.65 159.19 126.47 159.11H127.06H128.83H129.05V156.13H128.58V156.11Z" fill="black"/>
<path d="M181.49 167.83H178.7V148.86L181.49 148.95V167.83Z" fill="black"/>
<path d="M90.93 139.38V142.36H94.12V157.45H94.1V159.16H96.89V158.78H96.91V142.36H100.11V139.38H90.93Z" fill="black"/>
<path d="M155.32 164.89C155.3 164.87 155.29 164.84 155.27 164.81V164.89H154.41C153.77 164.76 151.89 164.43 151.53 162.47C151.46 162.1 151.49 155.25 151.51 151.15L155.75 151.16L155.76 148.18L151.53 148.17V144.54H148.74V148.11V148.77V162.62C148.73 163.13 148.8 163.67 148.95 164.21C149.57 166.45 151.39 167.97 153.21 167.89H153.8H155.57H155.79V164.91H155.32V164.89Z" fill="black"/>
<path d="M157.49 162.46C157.48 162.97 157.55 163.51 157.7 164.05C158.32 166.29 160.14 167.81 161.96 167.73H166.76V167.67H166.8V147.95H164.01V164.85C163.71 164.84 163.45 164.81 163.25 164.76C162.72 164.64 160.65 164.39 160.27 162.31C160.17 161.78 160.27 147.94 160.27 147.94H157.48L157.49 162.46Z" fill="black"/>
<path d="M108.97 144.63C108.86 142.36 107.54 139.65 104.89 139.58C104.88 139.58 104.87 139.58 104.86 139.58C104.85 139.58 104.84 139.58 104.83 139.58C104.82 139.58 104.81 139.58 104.8 139.58C104.79 139.58 104.78 139.58 104.77 139.58C102.12 139.65 100.79 142.36 100.69 144.63C100.65 145.56 100.5 148.16 100.5 149.11C100.5 150.19 100.57 152.64 100.62 153.57C100.79 157.05 102.89 158.69 104.78 158.89V158.9C104.8 158.9 104.82 158.9 104.84 158.89C104.86 158.89 104.88 158.89 104.9 158.9V158.89C106.78 158.69 108.89 157.05 109.06 153.57C109.11 152.64 109.18 150.19 109.18 149.11C109.16 148.15 109.01 145.56 108.97 144.63ZM106.13 153.66C106.13 154.81 105.75 155.88 104.83 156.02C103.9 155.88 103.53 154.81 103.53 153.66C103.53 153.65 103.53 153.65 103.53 153.64V149.93V149.25V148.85V148.23V144.61C103.53 144.61 103.54 144.61 103.54 144.6C103.58 143.48 104.05 142.62 104.84 142.46C105.62 142.62 106.09 143.48 106.14 144.6C106.14 144.6 106.14 144.6 106.15 144.61V148.23V148.85V149.25V149.93V153.64C106.13 153.65 106.13 153.65 106.13 153.66Z" fill="black"/>
<path d="M192.61 153.5C192.5 151.23 191.18 148.52 188.53 148.45C188.52 148.45 188.51 148.45 188.5 148.45C188.49 148.45 188.48 148.45 188.47 148.45C188.46 148.45 188.45 148.45 188.44 148.45C188.43 148.45 188.42 148.45 188.41 148.45C185.76 148.52 184.43 151.23 184.33 153.5C184.29 154.43 184.14 157.03 184.14 157.98C184.14 159.06 184.21 161.51 184.26 162.44C184.43 165.92 186.53 167.56 188.42 167.76V167.77C188.44 167.77 188.46 167.77 188.48 167.76C188.5 167.76 188.52 167.76 188.54 167.77V167.76C190.42 167.56 192.53 165.92 192.7 162.44C192.75 161.51 192.82 159.06 192.82 157.98C192.8 157.03 192.65 154.43 192.61 153.5ZM189.77 162.53C189.77 163.68 189.39 164.75 188.47 164.89C187.54 164.75 187.17 163.68 187.17 162.53C187.17 162.52 187.17 162.52 187.17 162.51V158.8V158.12V157.72V157.1V153.48C187.17 153.48 187.18 153.48 187.18 153.47C187.22 152.35 187.69 151.49 188.48 151.33C189.26 151.49 189.73 152.35 189.78 153.47C189.78 153.47 189.78 153.47 189.79 153.48V157.1V157.72V158.12V158.8V162.51C189.77 162.52 189.77 162.53 189.77 162.53Z" fill="black"/>
<path d="M174.43 144.36V148.48H172.87V148.47C172.86 148.47 172.85 148.47 172.84 148.47C172.83 148.47 172.82 148.47 172.81 148.47C170.16 148.54 168.83 151.25 168.73 153.52C168.69 154.45 168.54 157.05 168.54 158C168.54 159.08 168.61 161.53 168.66 162.46C168.83 165.93 170.92 167.55 172.8 167.76V167.77H174.4V164.91H172.88C171.95 164.77 171.58 163.7 171.58 162.55C171.58 162.54 171.58 162.54 171.58 162.53V158.82V158.14V157.74V157.12V153.5C171.58 153.5 171.59 153.5 171.59 153.49C171.63 152.37 172.1 151.51 172.89 151.35L174.45 151.33V167.79H177.24V144.36H174.43Z" fill="black"/>
<path d="M189.95 134.09H155.31V134.1C153.79 134.09 152.27 134.09 150.75 134.1C147.62 134.13 144.45 134.2 141.33 134.33V134.44C140.54 134.54 139.58 134.76 138.77 135.18C136.65 136.29 135.83 137.73 135.85 140.33C135.86 141.15 136.36 143.05 137.6 147.53C138.29 150.01 139 152.57 139.39 154.32C139.93 156.71 140.01 161.38 138.89 163.26C137.99 164.77 136.53 165.76 134.65 166.11C132.01 166.61 127.9 166.6 123.14 166.45C120.48 166.37 117.79 166.43 115.19 166.38C112.48 166.33 110.52 166.33 108.33 166.27V166.26H107.79C107.65 166.26 107.51 166.25 107.36 166.25V166.26L50.39 166.29L50.18 169.52L108.33 169.43V169.4C110.64 169.45 112.97 169.44 115.23 169.4C117.8 169.36 120.24 169.25 123.05 169.3C125.55 169.35 127.42 169.44 129.33 169.44C131.58 169.44 133.55 169.34 135.14 169.04C137.81 168.53 139.92 167.08 141.25 164.85C142.93 162.02 142.75 156.47 142.1 153.61C141.68 151.79 140.97 149.19 140.27 146.68C139.6 144.26 138.68 140.94 138.63 140.29C138.62 138.78 138.89 138.43 139.98 137.86C140.75 137.46 142 137.33 142.49 137.34V137.27C145.23 137.17 148 137.11 150.74 137.09C152.76 137.07 154.8 137.08 156.8 137.1V137.08H189.91V134.09H189.95Z" fill="black"/>
<path d="M185.06 180.44H16.27C7.3 180.44 0 173.14 0 164.16V16.27C0 7.3 7.3 0 16.27 0H185.05C194.02 0 201.32 7.3 201.32 16.27V164.16C201.33 173.14 194.03 180.44 185.06 180.44ZM16.27 2.98C8.94 2.98 2.98 8.94 2.98 16.27V164.16C2.98 171.49 8.94 177.45 16.27 177.45H185.05C192.38 177.45 198.34 171.49 198.34 164.16V16.27C198.34 8.94 192.38 2.98 185.05 2.98H16.27Z" fill="black"/>
<path d="M88.91 33.9899C87.99 32.4699 85.29 29.1999 80.09 31.7399C77.4 33.0499 75.77 35.4699 75.52 38.5599C75.52 38.5899 75.52 38.6199 75.51 38.6299C74.86 42.7299 75.63 45.7099 77.8 47.4999C79.07 48.5499 80.58 48.9699 82.03 48.9699C83.2 48.9699 84.33 48.6899 85.24 48.2499C88.32 46.7599 89.22 43.4999 89.61 42.0999C89.92 40.9299 90.92 37.3199 88.91 33.9899ZM87.34 41.4899C86.99 42.7599 86.34 45.1199 84.21 46.1499C82.83 46.8199 80.78 46.9399 79.29 45.6999C78.1 44.7099 77.55 43.0499 77.64 40.7599C78.02 41.1499 78.51 41.3899 79.06 41.3899C80.26 41.3899 81.21 40.2699 81.21 38.8299C81.21 37.3899 80.27 36.2699 79.06 36.2699C78.86 36.2699 78.67 36.2999 78.49 36.3599C79.04 35.2699 79.91 34.4299 81.12 33.8399C82.05 33.3799 82.91 33.1599 83.68 33.1599C85.01 33.1599 86.09 33.8399 86.91 35.1999C88.39 37.6699 87.63 40.4399 87.34 41.4899Z" fill="black"/>
<path d="M28.42 51.8C26.43 52.73 25.23 53.86 24.49 54.76C24.39 54.88 24.31 54.9801 24.28 55.0201C23.68 55.8101 22.3 57.6101 22.55 59.4901C22.65 60.2501 23.08 61.54 24 61.84C25.23 62.2301 26.72 60.63 27.17 59.32C27.47 58.45 27.39 57.5 27.39 57.5C27.36 57.09 27.28 56.75 27.2 56.51C27.24 58.01 26.5 59.05 25.79 59.1C25.31 59.13 24.86 58.71 24.64 58.34C24.08 57.41 24.64 56.2701 24.77 56.0201C25.23 55.1501 26.05 54.7701 26.35 54.6301C27.17 54.2501 27.5 54.4701 28.04 53.9901C28.18 53.8701 28.71 53.4 28.71 52.67C28.7 52.27 28.52 51.95 28.42 51.8Z" fill="black"/>
<path d="M188.84 96.01C188.65 95.74 188.59 95.68 188.49 95.56L188.21 95.22L187.09 93.87L184.84 91.17C183.34 89.3699 181.84 87.57 180.33 85.79C180.03 85.44 179.73 85.08 179.43 84.73L180.35 84.47C180.88 84.32 181.28 83.9 181.4 83.35C181.52 82.7999 181.32 82.24 180.89 81.89L177.41 79.02L179.99 77.66C180.45 77.42 180.75 76.95 180.77 76.43C180.8 75.91 180.55 75.4 180.12 75.11C179.12 74.43 178.15 73.74 177.25 73.05C177.15 72.97 176.93 72.81 176.77 72.66C176.93 72.56 177.13 72.53 177.62 72.46C177.87 72.43 178.16 72.39 178.5 72.33C178.82 72.27 179.14 72.1899 179.46 72.09C180.05 71.91 180.47 71.36 180.5 70.74C180.53 70.11 180.16 69.53 179.58 69.3C177.1 68.29 174.56 67.37 172.01 66.56C173.2 66.21 174.39 65.9 175.58 65.61C176.64 65.36 177.71 65.12 178.78 64.92C179.37 64.81 179.82 64.35 179.94 63.76C180.06 63.16 179.81 62.56 179.3 62.22C176.93 60.66 174.54 59.4 172.19 58.49C171.82 58.35 171.41 58.19 170.58 57.89C169.74 57.58 168.45 57.1 166.3 56.31H166.29C166.95 56.02 167.61 55.74 168.28 55.48C170.16 54.74 172.09 54.08 174.03 53.54C174.64 53.37 175.07 52.82 175.1 52.18C175.13 51.54 174.75 50.95 174.16 50.72C171.66 49.75 169.1 48.78 166.55 47.81C161.87 46.04 159.65 45.25 156.84 44.64C161.45 43.37 165.25 43.07 168.31 42.82C170.21 42.67 172.15 42.58 174.07 42.56C174.71 42.55 175.27 42.13 175.45 41.51C175.64 40.88 175.4 40.21 174.86 39.84C172.67 38.37 167.07 34.75 162.42 32.99C161.15 32.51 159.92 32.12 158.95 31.85C159.81 31.73 160.67 31.65 161.52 31.61H161.55C166.18 31.4 169.24 31.26 169.65 31.29L169.69 31.3C170.66 31.42 172.46 31.65 172.9 30.32C173.1 29.73 172.9 29.13 172.32 28.53C172.23 28.44 172.13 28.36 172.01 28.29C165.03 24.26 157.93 21.11 150.89 18.93C148.81 18.28 145.92 17.47 143.04 16.72C143.22 16.5 143.34 16.22 143.38 15.91C143.5 15.09 143.04 14.34 142.27 14.08C136.46 12.13 132.19 10.97 128.85 10.42C122.33 9.35996 119.66 9.17996 116.17 9.19996C113.44 9.20996 110.83 9.88996 109.98 10.12C109.9 10.14 109.84 10.16 109.8 10.17C108.71 10.41 107.63 10.7 106.56 11.02C106.69 10.82 106.82 10.63 106.97 10.45C107.3 10.05 107.67 9.69996 108.09 9.40996C108.68 8.99996 108.92 8.22996 108.67 7.54996C108.42 6.86996 107.78 6.45996 107.07 6.51996C105.82 6.62996 104.56 6.82996 103.33 7.08996C101.59 7.45996 99.61 7.88996 97.3 9.05996C93.22 11.13 91.05 14.07 90.48 14.93C89.48 16.43 88.92 17.98 88.85 18.16V18.17C88.79 18.35 88.73 18.54 88.67 18.73C76.78 21.83 65.35 25.88 54.67 30.79L53.29 31.42C43.92 35.71 21.99 45.77 16.2 52.14C15.2 53.24 12.02 57.05 13.26 59.7C13.43 60.05 13.64 60.33 13.89 60.64C14.17 60.99 14.51 61.43 14.93 62.17C15.07 62.42 15.2 62.68 15.33 62.94C14.59 63.43 13.71 64.24 13.14 65.52C12.95 65.94 12.07 68.13 13 70.44C13.54 71.78 14.44 72.56 14.82 72.89C15.25 73.26 15.77 73.44 16.16 73.57C16.17 73.57 16.19 73.5799 16.21 73.59C16.27 73.8599 16.34 74.13 16.43 74.4C16.72 75.63 17.23 76.52 17.63 77.21C17.69 77.32 17.76 77.43 17.81 77.53C18.04 77.94 18.24 78.21 18.52 78.6C18.63 78.74 18.75 78.91 18.9 79.12C19.15 79.46 19.4 79.78 19.64 80.08C19.88 80.38 20.11 80.68 20.34 80.99C20.4 81.09 20.45 81.19 20.49 81.26C20.22 82.87 20.53 84.7999 20.97 86.03C21.68 88.04 24.48 88.86 25.77 88.74C26.13 88.71 26.46 88.64 26.75 88.56C26.81 89.4799 27.06 90.54 27.71 91.58C28.34 92.59 29.57 93.9 31.83 94.37C33.8 94.78 35.41 94.16 36.22 93.74L51.18 86.68C51.35 86.6 51.5 86.48 51.62 86.32C52.29 85.42 53.14 83.92 53.35 81.87C53.5 80.39 53.26 79.11 52.96 78.16L64.96 73.7C66.75 76.2999 68.89 78.56 71.33 80.42C75.1 83.28 78.61 84.4 80.93 85.14C86.75 86.99 91.42 86.89 95.55 86.8C99.21 86.72 101.91 86.3 104.58 85.39C104.87 85.29 105.15 85.1899 105.41 85.09C105.33 85.3299 105.32 85.64 105.5 86.04H105.49L105.66 86.36C106.2 87.39 107.82 90.49 109.48 93.61C111.29 97.08 113.52 101.38 115.93 106.1C116.06 106.36 116.28 106.55 116.53 106.65C117.81 108.99 119.03 111.21 120.48 113.91C123.18 118.98 125.87 124.24 128.48 129.56C128.83 130.27 129.45 130.81 130.2 131.03C130.45 131.1 130.7 131.14 130.96 131.14C131.45 131.14 131.92 131.01 132.36 130.74C142.99 124.27 153.9 117.98 164.79 112.02C167.17 110.72 169.58 109.42 171.99 108.13C173.67 107.24 175.35 106.36 177.04 105.48C179.06 104.43 181.09 103.39 183.12 102.36L186.17 100.82L187.7 100.05L187.89 99.95C188 99.89 188.12 99.8299 188.23 99.74C188.45 99.5799 188.65 99.38 188.82 99.16C189.15 98.71 189.33 98.15 189.34 97.58C189.32 97.05 189.15 96.47 188.84 96.01ZM178.13 82.65L177.75 82.75C177.35 82.28 176.96 81.82 176.56 81.35L178.13 82.65ZM92.46 16.23C92.95 15.5 94.81 12.97 98.38 11.16C100.42 10.13 102.16 9.74996 103.84 9.38996C104.24 9.30996 104.63 9.22996 105.03 9.15996C104.38 10.01 103.89 10.97 103.6 12.04C103.45 12.58 103.61 13.15 104.01 13.53C104.41 13.9 104.97 14.02 105.48 13.85C107.07 13.3 108.7 12.83 110.34 12.46C110.39 12.45 110.48 12.43 110.6 12.39C111.38 12.19 113.77 11.56 116.21 11.55C119.15 11.53 121.59 11.61 128.51 12.74C131.04 13.15 134.26 13.97 138.3 15.24C137.98 15.28 137.73 15.31 137.52 15.34C137.46 15.35 137.39 15.36 137.33 15.36C136.74 15.29 136.6 15.38 136.38 15.51C136.09 15.69 135.89 15.99 135.83 16.32C135.77 16.69 135.89 17.08 136.15 17.35C136.47 17.69 136.83 17.75 137.27 17.72C138.9 18.03 145.73 19.77 150.23 21.17C156.3 23.05 162.42 25.67 168.46 28.97C167.24 29.01 165.14 29.1 161.48 29.27H161.45C159.16 29.37 156.81 29.75 154.47 30.38C153.81 30.56 153.37 31.16 153.4 31.85C153.43 32.54 153.92 33.1 154.59 33.22C155.25 33.34 155.92 33.48 156.57 33.63C156.59 33.64 159.07 34.22 161.63 35.19C164.88 36.42 168.67 38.64 171.29 40.3C170.24 40.34 169.19 40.41 168.15 40.49C164.98 40.74 161.04 41.05 156.19 42.4C155.04 42.72 153.88 43.09 152.75 43.48C152.11 43.71 151.71 44.35 151.78 45.04C151.85 45.72 152.37 46.26 153.04 46.35C153.95 46.47 154.87 46.63 155.77 46.81C158.73 47.4 160.85 48.16 165.75 50C167.5 50.66 169.26 51.33 171.01 52C169.81 52.39 168.61 52.82 167.44 53.29C166.09 53.82 164.75 54.42 163.44 55.05C162.91 55.31 162.58 55.86 162.61 56.46C162.64 57.06 163.01 57.57 163.56 57.78C164.1 57.98 164.76 58.23 165.5 58.5C167.64 59.3 168.94 59.77 169.78 60.09C170.59 60.39 171 60.54 171.35 60.68C172.96 61.3 174.6 62.1 176.23 63.06C175.83 63.15 175.43 63.24 175.04 63.34C172.89 63.86 170.72 64.47 168.61 65.18C167.99 65.38 167.59 65.96 167.6 66.62C167.61 67.28 168.04 67.84 168.67 68.01C169.45 68.23 170.23 68.47 171 68.71C172.68 69.23 174.35 69.81 176.01 70.43C175.73 70.54 175.44 70.7 175.15 70.94C174.89 71.16 174.35 71.6 174.26 72.39C174.11 73.64 175.21 74.48 175.79 74.93C176.37 75.38 176.98 75.8299 177.61 76.27L175.15 77.57C174.71 77.8 174.42 78.24 174.37 78.73C174.37 78.77 174.37 78.82 174.36 78.86C173.29 77.62 172.21 76.39 171.13 75.17C169.58 73.42 168.02 71.68 166.46 69.94C164.9 68.21 163.36 66.48 161.85 64.71C158.83 61.18 155.93 57.53 153 53.87C151.53 52.04 150.05 50.21 148.52 48.42C146.99 46.63 145.41 44.87 143.8 43.17C142.99 42.32 142.17 41.48 141.34 40.65L140.75 40C140.54 39.79 140.34 39.59 140.11 39.38C139.86 39.14 139.61 38.91 139.36 38.69C138.28 37.62 137.18 36.58 136.07 35.57C136.53 35.53 136.99 35.5 137.46 35.47C138 35.43 138.55 35.39 139.13 35.31C139.28 35.29 139.42 35.27 139.58 35.24L139.81 35.2L140.05 35.14C140.22 35.1 140.33 35.06 140.47 35.02L140.86 34.9C141.38 34.74 141.9 34.57 142.43 34.4C142.95 34.23 143.48 34.02 143.95 33.86C144.38 33.71 144.81 33.59 145.26 33.47C145.52 33.49 145.76 33.48 145.99 33.47C146.17 33.46 146.35 33.45 146.52 33.43C146.89 33.39 147.29 33.33 147.68 33.24C148.15 33.28 149.02 33.3 149.73 32.65C150.33 32.1 150.43 31.54 150.4 31.17C150.37 30.66 150.12 30.29 149.77 30C149.21 29.2 148.13 28.93 147.16 28.68C146.55 28.53 145.93 28.37 145.38 28.11C144.39 27.64 143.45 27.14 142.5 26.62C141.84 26.25 141.18 25.86 140.41 25.41C139.77 25.03 139.05 24.61 138.2 24.12C137.39 23.62 136.51 23.1 135.1 22.35C132.39 20.82 130.59 19.9 128.57 19.19C128.56 19.19 128.55 19.18 128.55 19.18C127.98 18.96 127.41 18.76 126.82 18.59C125.29 18.1 123.76 17.72 121.82 17.62C119.89 17.52 119.14 17.53 114.95 17.86C114.75 17.87 114.54 17.88 114.3 17.88C113.73 17.9 113.32 17.88 112.96 17.86C112.38 17.83 111.88 17.81 111.14 17.94C110.58 18.04 109.87 18.23 108.61 18.59C107.44 18.76 106.38 18.94 105.7 19.12C103.62 18.41 101.49 17.96 99.35 17.75C99.35 17.75 99.35 17.75 99.34 17.75C99.34 17.75 99.34 17.75 99.33 17.75H99.32C99.31 17.75 99.3 17.75 99.29 17.75C99.23 17.74 99.16 17.74 99.1 17.73C98.12 17.65 96.33 17.56 94.16 17.75C93.24 17.83 92.32 17.95 91.41 18.12C91.66 17.6 92.01 16.91 92.46 16.23ZM22.3 79.72C22.04 79.29 21.7 78.7999 21.28 78.21C21.09 77.95 20.9 77.66 20.7 77.37C23.74 76.38 29.2 74.16 32.07 71.85L32.28 71.68C34.43 69.95 35.61 69 36.1 68.23C36.12 68.2 36.19 68.12 36.25 68.07C36.56 67.75 37.08 67.21 36.97 66.46C36.87 65.76 36.3 65.17 35.82 64.92C35.45 64.74 35.1 64.72 34.81 64.87C34.65 64.96 34.53 65.1 34.48 65.28C34.4 65.57 34.53 65.81 34.61 65.95C34.69 66.1 34.79 66.26 34.78 66.54C34.78 66.83 34.57 67.29 34.41 67.62C34.25 67.98 34.13 68.24 34.11 68.5C33.48 69.06 32.59 69.78 31.47 70.68L31.26 70.85C28.41 73.14 22.72 75.41 19.96 76.27C19.55 75.6099 19.16 74.93 18.87 74.27C19.85 74.31 21.03 74.2199 22.11 73.84C24.2 73.1099 25.4 71.7 25.91 71.1C27.12 69.68 27.57 68.39 27.98 67.25C28.13 66.83 28.27 66.44 28.44 66.04C29.83 62.82 33.18 59.5 36.16 59.74C38.35 59.92 39.94 61.92 40.53 62.77C41.06 63.55 41.5 66.46 42.11 70.5C42.55 73.39 42.66 74.7 42.04 75.96C41.91 76.2299 41.51 77.04 40.68 77.54C39.75 78.11 39.17 78.0799 38.85 77.95C38.69 77.89 38.65 77.85 38.36 77.47C38.11 77.14 37.76 76.6899 37.17 76.13C36.46 75.4699 35.58 74.64 34.3 74.23C33.17 73.86 31.34 73.7 29.01 75.02C28.01 75.59 27.48 76.18 26.93 76.8C26.71 77.05 26.49 77.3 26.21 77.58C25.44 78.35 24.21 79.1199 22.44 79.92C22.4 79.86 22.35 79.79 22.3 79.72ZM186.9 97.65C186.89 97.66 186.88 97.67 186.87 97.68C186.86 97.69 186.86 97.68 186.84 97.7L186.65 97.8L185.13 98.58L182.08 100.15C180.05 101.2 178.03 102.26 176.01 103.33C174.31 104.23 172.61 105.14 170.92 106.05C168.48 107.35 166.05 108.66 163.64 109.98C152.72 115.95 141.78 122.27 131.12 128.75C131.03 128.8 130.94 128.82 130.84 128.79C130.73 128.76 130.63 128.67 130.57 128.55C127.96 123.2 125.25 117.91 122.54 112.82C121.07 110.07 119.84 107.82 118.53 105.44C116.74 102.17 114.7 98.47 111.59 92.6C111.57 92.57 111.56 92.54 111.54 92.51C109.77 89.12 108.39 86.52 107.64 85.1L107.56 84.94C107.4 84.67 107.21 84.5099 107.01 84.42C107.39 84.25 107.7 84.1 107.92 83.99C112.4 81.71 115.05 78.67 117.39 75.98C119.75 73.27 122.69 69.89 124.49 64.37C125.48 61.31 125.97 58.09 125.92 54.79C125.91 54.15 125.39 53.63 124.75 53.63C124.74 53.63 124.74 53.63 124.73 53.63C124.08 53.64 123.57 54.17 123.57 54.82C123.61 57.87 123.17 60.84 122.25 63.65C120.6 68.72 117.83 71.8999 115.61 74.45C113.3 77.1 110.92 79.84 106.84 81.91C106.43 82.12 105.31 82.66 103.81 83.17C101.38 83.99 98.89 84.38 95.47 84.45C91.34 84.5399 87.07 84.64 81.62 82.9C79.32 82.17 76.18 81.17 72.73 78.55C70.26 76.67 68.13 74.35 66.39 71.64C66.09 71.18 65.51 70.98 65 71.18L51.01 76.38C50.7 76.5 50.45 76.74 50.33 77.04C50.21 77.35 50.22 77.6899 50.36 77.99C50.67 78.63 51.17 79.96 51 81.63C50.86 83.03 50.3 84.09 49.89 84.69L35.2 91.64C35.18 91.65 35.17 91.66 35.15 91.66C34.64 91.93 33.59 92.35 32.32 92.08C31.15 91.83 30.27 91.25 29.7 90.34C28.77 88.85 29.13 87.17 29.22 86.85C29.33 86.4399 29.2 86 28.9 85.71L29.02 85.23L28.6 85.5C28.24 85.32 27.81 85.34 27.46 85.56C27.38 85.61 27.29 85.67 27.2 85.74C26.83 86 26.37 86.33 25.56 86.4C25.03 86.45 23.43 85.9399 23.18 85.24C22.91 84.4799 22.71 83.36 22.74 82.35C25.16 81.32 26.8 80.33 27.89 79.23C28.21 78.9 28.47 78.61 28.7 78.36C29.19 77.81 29.52 77.4399 30.18 77.06C31.45 76.34 32.6 76.14 33.59 76.46C34.37 76.72 34.99 77.29 35.58 77.85C36.04 78.28 36.29 78.61 36.52 78.9C36.88 79.36 37.24 79.84 38.04 80.15C38.85 80.46 40.19 80.61 41.92 79.55C43.34 78.69 43.97 77.41 44.17 76.99C45.12 75.0499 44.9 73.12 44.45 70.15C43.65 64.84 43.29 62.63 42.49 61.45C41.72 60.32 39.58 57.66 36.38 57.4C32.15 57.06 28.04 61.12 26.32 65.11C26.12 65.58 25.96 66.03 25.8 66.46C25.41 67.55 25.08 68.49 24.16 69.57C23.74 70.07 22.86 71.1 21.37 71.62C20.1 72.06 18.56 71.93 17.89 71.81C17.58 71.57 17.2 71.4399 16.92 71.35C16.75 71.29 16.45 71.19 16.37 71.12C16.09 70.88 15.52 70.38 15.19 69.57C14.6 68.11 15.22 66.65 15.3 66.48C15.88 65.19 16.97 64.68 17.29 64.55C17.89 64.31 18.18 63.64 17.95 63.04C17.68 62.34 17.37 61.66 17 61.02C16.5 60.12 16.07 59.58 15.77 59.19C15.6 58.98 15.47 58.81 15.42 58.7C15.02 57.86 16.45 55.4 17.97 53.72C23.44 47.7 45.06 37.79 54.3 33.55L55.69 32.91C66.57 27.91 78.24 23.8 90.39 20.71C90.86 20.62 91.33 20.54 91.8 20.47C92.46 20.37 93.36 20.26 95.06 20.17C97.08 20.06 98.17 20 98.93 20.06C99 20.07 99.06 20.07 99.12 20.08C100.4 20.22 101.55 20.53 103.01 20.93C103.16 20.97 103.31 21.01 103.45 21.05C104.66 21.39 105.7 21.68 107.1 21.44C107.28 21.41 107.37 21.38 107.59 21.32C107.76 21.27 108.06 21.18 108.64 21.01C108.8 20.96 108.96 20.92 109.1 20.88C111.14 20.59 113.67 20.3 115.1 20.19C115.82 20.16 116.37 20.12 116.9 20.08C117.64 20.02 118.34 19.97 119.44 19.96C119.46 19.96 121.79 19.94 124.25 20.39C124.89 20.51 125.49 20.65 126.07 20.81C126.61 20.98 127.15 21.17 127.73 21.38C129.09 21.91 130.51 22.62 132.37 23.57C132.98 23.88 133.51 24.15 133.97 24.4C134.86 24.9 135.86 25.48 137 26.13C137.15 26.22 137.29 26.31 137.43 26.4C138.28 26.92 139.16 27.47 140.62 28.27C140.87 28.41 141.13 28.55 141.38 28.68C142.26 29.17 143.18 29.65 144.35 30.21C144.37 30.22 144.39 30.23 144.41 30.24C144.94 30.49 145.48 30.74 146.05 30.98C145.79 31.01 145.49 31.05 145.15 31.1L145.08 31.09L144.93 31.13C144.76 31.15 144.59 31.18 144.4 31.2C143.96 31.26 143.23 31.44 141.47 31.89C140.32 32.19 139.79 32.33 139.42 32.43C139.07 32.52 138.88 32.58 138.4 32.69C137.57 32.89 136.92 33.03 136.4 33.12C136.16 33.14 135.92 33.15 135.68 33.17C135.13 33.21 134.58 33.27 134.02 33.34C133.46 33.42 132.9 33.52 132.34 33.65L130.06 34.18L131.86 35.78C132.34 36.21 132.8 36.57 133.27 36.93L134.64 37.99C135.55 38.69 136.43 39.39 137.28 40.13C137.7 40.5 138.12 40.87 138.51 41.25C138.71 41.44 138.91 41.64 139.11 41.85L139.72 42.46C140.34 43.08 140.94 43.71 141.55 44.35C143.91 46.91 145.53 48.92 146.83 50.53L147.04 50.79C149.26 53.53 151.55 56.25 153.82 58.92C155.85 61.46 157.9 64 160.02 66.49C161.54 68.29 163.11 70.04 164.67 71.77C164.94 72.07 165.21 72.3699 165.48 72.67C168.88 76.6899 172.36 80.7599 175.88 84.84C176.06 85.0499 176.3 85.2 176.55 85.28C177.2 86.03 177.84 86.79 178.49 87.55C180.01 89.33 181.51 91.11 183.01 92.9L185.26 95.58L186.39 96.92L186.67 97.25C186.74 97.34 186.85 97.47 186.87 97.49C186.88 97.5 186.89 97.51 186.89 97.53C186.9 97.54 186.9 97.56 186.9 97.57C186.93 97.6 186.91 97.63 186.9 97.65Z" fill="black"/>
</svg>
