<svg width="56" height="57" viewBox="0 0 56 57" fill="none" xmlns="http://www.w3.org/2000/svg">
<path d="M26.9906 39.1457C26.5006 39.1457 25.9806 39.0758 25.4706 38.9058C21.8906 37.6958 18.6706 35.4058 16.4106 32.4757L15.7706 31.6457C12.8406 27.8557 9.81056 23.9357 8.27056 19.2857C8.25056 19.2357 8.23056 19.1858 8.22056 19.1258C8.07056 18.7058 7.89056 18.1757 8.27056 17.7557C8.36056 17.6557 8.47056 17.5758 8.61056 17.5258C9.85056 17.0558 13.6306 17.4858 13.9106 17.5158C14.6306 17.5358 15.2706 17.9658 15.5306 18.6258C16.8706 21.9958 18.9206 25.1058 21.4606 27.6258C21.6706 27.8358 21.8806 28.0358 22.0906 28.2358C22.3606 28.4858 22.7006 28.4758 22.9306 28.3758C23.1606 28.2758 23.3906 28.0457 23.3906 27.6757L23.3406 23.9158C23.3406 23.8758 23.3806 20.7258 23.3806 20.5958C23.3806 19.5558 22.7506 18.6758 21.9406 18.5758C21.8406 18.5658 21.7506 18.5158 21.6806 18.4358C21.6206 18.3558 21.5906 18.2557 21.6006 18.1457C21.6306 17.9157 21.7106 17.7058 21.8306 17.5158C21.8706 17.4558 21.9406 17.4158 22.0106 17.4158H29.9506C30.0506 17.4158 30.1306 17.4757 30.1606 17.5657C30.2606 17.8757 30.3106 18.1958 30.3106 18.5258L30.3806 23.5858C30.3806 23.8058 30.5006 23.9858 30.7106 24.0758C30.9106 24.1658 31.1306 24.1358 31.3006 23.9958C31.7606 23.6158 32.2106 23.2158 32.6406 22.8058C33.9506 21.5558 35.9606 18.6958 36.5506 17.8558C36.7406 17.5758 37.0606 17.4158 37.4106 17.4158H42.7806C43.0306 17.4158 43.2606 17.5057 43.4306 17.6757C43.6006 17.8457 43.7006 18.0757 43.7006 18.3157C43.7006 18.8657 43.6506 19.6258 43.3906 20.1058C42.2206 22.2858 39.4106 25.6458 38.2506 26.9858C37.9306 27.3558 37.9406 27.9158 38.2706 28.2758C38.6706 28.7058 39.2006 29.2858 39.7806 29.9058C41.1706 31.3958 42.7506 33.0858 43.4006 33.9158C43.6106 34.1858 43.8506 34.4357 44.0806 34.6757C44.8906 35.5357 45.7306 36.4257 44.8506 37.6757C44.4106 38.3057 43.6806 38.6757 42.9006 38.6757H39.1006C38.5406 38.6757 38.0006 38.4758 37.5906 38.0958C35.5406 36.2458 33.6106 34.1958 31.8506 31.9858C31.5506 32.0058 31.2906 32.0758 31.0406 32.2158C30.7706 32.3658 30.6106 32.5258 30.5206 32.7358L30.5606 35.7257C30.5806 36.9258 29.9406 38.0657 28.9106 38.7057C28.5406 38.9457 27.8206 39.1457 26.9906 39.1457ZM10.5506 17.7458C9.82056 17.7458 9.14056 17.7958 8.76056 17.9358C8.69056 17.9658 8.63056 17.9958 8.59056 18.0458C8.39056 18.2658 8.48056 18.5658 8.63056 18.9958C8.65056 19.0458 8.67056 19.1058 8.69056 19.1558C10.2106 23.7258 13.2106 27.6258 16.1206 31.3858L16.7606 32.2158C18.9706 35.0858 22.1106 37.3158 25.6106 38.4958C26.8006 38.8958 28.1506 38.6757 28.6606 38.3657C29.5706 37.8057 30.1206 36.8057 30.1106 35.7557L30.0706 32.7257C30.0706 32.6958 30.0806 32.6658 30.0906 32.6358C30.2506 32.2258 30.5806 32.0058 30.8106 31.8758C31.1506 31.6858 31.5206 31.5958 31.9306 31.5858C31.9706 31.5858 32.0006 31.5958 32.0306 31.6058C32.0606 31.6158 32.1106 31.6457 32.1306 31.6757C33.8906 33.8857 35.8306 35.9558 37.8806 37.8058C38.2106 38.1058 38.6406 38.2658 39.1006 38.2658H42.9006C43.5406 38.2658 44.1306 37.9657 44.4906 37.4557C45.1406 36.5357 44.6606 35.9458 43.7606 34.9958C43.5206 34.7458 43.2806 34.4857 43.0606 34.2057C42.4206 33.3957 40.7806 31.6357 39.4606 30.2257C38.8806 29.6058 38.3506 29.0358 37.9506 28.5958C37.4706 28.0758 37.4606 27.2758 37.9206 26.7458C39.0706 25.4158 41.8606 22.0858 43.0106 19.9358C43.1806 19.6258 43.2706 19.0558 43.2706 18.3458C43.2706 18.2158 43.2206 18.1058 43.1306 18.0158C43.0406 17.9258 42.9206 17.8758 42.7906 17.8758H37.4206C37.2206 17.8758 37.0406 17.9758 36.9206 18.1358C36.1606 19.2258 34.2506 21.9058 32.9506 23.1558C32.5106 23.5758 32.0606 23.9757 31.5906 24.3657C31.2906 24.6057 30.8906 24.6657 30.5406 24.5057C30.1906 24.3457 29.9706 24.0158 29.9606 23.6358L29.8906 18.5758C29.8906 18.3458 29.8606 18.1158 29.8006 17.8858H22.1406C22.0906 17.9858 22.0606 18.0858 22.0406 18.1858C23.0506 18.3358 23.8106 19.3657 23.8106 20.6157C23.8106 20.7557 23.7706 23.8058 23.7706 23.9358L23.8206 27.6858C23.8306 28.1658 23.5506 28.5857 23.1006 28.7857C22.6506 28.9757 22.1506 28.8958 21.7906 28.5558C21.5706 28.3558 21.3606 28.1458 21.1506 27.9358C18.5706 25.3758 16.4906 22.2158 15.1306 18.7958C14.9306 18.2958 14.4506 17.9658 13.9006 17.9658C13.8906 17.9658 13.8806 17.9658 13.8806 17.9658C13.8406 17.9558 12.0606 17.7458 10.5506 17.7458Z" fill="#20A6A3"/>
<path d="M26.9901 39.9558C26.3601 39.9558 25.7701 39.8558 25.2101 39.6758C21.4801 38.4158 18.1301 36.0358 15.7701 32.9758L15.1301 32.1558C12.1601 28.3058 9.08013 24.3358 7.50013 19.5558L7.46013 19.4558C7.27013 18.9258 6.96013 18.0158 7.65013 17.2358C7.82013 17.0458 8.05013 16.8858 8.30013 16.7958C9.67013 16.2758 13.1701 16.6458 13.9501 16.7358C14.9801 16.7758 15.8901 17.4058 16.2701 18.3458C17.5701 21.6158 19.5601 24.6258 22.0201 27.0658C22.2001 27.2458 22.3801 27.4158 22.5701 27.5958L22.5201 23.9458V23.9058C22.5201 23.5758 22.5601 20.7558 22.5601 20.6258C22.5601 19.9658 22.1801 19.4558 21.8401 19.4158C21.5301 19.3758 21.2401 19.2258 21.0401 18.9758C20.8401 18.7258 20.7501 18.3958 20.7901 18.0758C20.8401 17.7258 20.9601 17.4058 21.1501 17.1158C21.3401 16.8258 21.6601 16.6458 22.0101 16.6458H29.9501C30.4001 16.6458 30.8001 16.9358 30.9301 17.3658C31.0501 17.7458 31.1101 18.1458 31.1201 18.5558L31.1801 23.0658C31.4801 22.8058 31.7801 22.5358 32.0701 22.2658C33.3201 21.0658 35.3001 18.2658 35.8801 17.4358C36.2201 16.9358 36.7901 16.6458 37.4001 16.6458H42.7701C43.2301 16.6458 43.6601 16.8258 43.9901 17.1458C44.3201 17.4658 44.5001 17.8958 44.5001 18.3558C44.5001 19.2958 44.3601 20.0258 44.1001 20.5258C42.9001 22.7758 40.0301 26.1958 38.8601 27.5558C38.8101 27.6158 38.8101 27.7158 38.8601 27.7758C39.2501 28.2058 39.7901 28.7758 40.3601 29.3958C41.7801 30.9158 43.3501 32.6058 44.0301 33.4558C44.2201 33.6958 44.4501 33.9358 44.6601 34.1658C45.4501 34.9958 46.7601 36.3958 45.5101 38.1858C44.9201 39.0258 43.9401 39.5258 42.9001 39.5258H39.1001C38.3401 39.5258 37.6101 39.2458 37.0501 38.7458C35.0901 36.9758 33.2301 35.0258 31.5301 32.9258C31.5001 32.9358 31.4601 32.9558 31.4301 32.9758C31.3901 32.9958 31.3501 33.0158 31.3301 33.0358L31.3701 35.7558C31.3901 37.2358 30.6101 38.6458 29.3301 39.4358C28.7801 39.7458 27.8901 39.9558 26.9901 39.9558ZM9.36013 18.6258C9.37013 18.6658 9.39013 18.7058 9.40013 18.7258L9.46013 18.8958C10.9301 23.3358 13.9001 27.1758 16.7601 30.8858L17.4001 31.7158C19.5101 34.4558 22.5201 36.5958 25.8701 37.7258C26.9001 38.0758 27.9801 37.8258 28.2401 37.6658C28.9101 37.2558 29.3101 36.5258 29.3001 35.7558L29.2601 32.7258C29.2601 32.5758 29.2901 32.4258 29.3501 32.2858C29.6201 31.5958 30.2201 31.2658 30.4101 31.1558C30.8701 30.8958 31.3601 30.7758 31.9101 30.7658C32.0801 30.7658 32.2101 30.7958 32.3501 30.8558C32.4501 30.9058 32.6201 30.9958 32.7501 31.1558C34.4901 33.3358 36.3901 35.3658 38.4101 37.1958C38.5901 37.3558 38.8301 37.4558 39.0801 37.4558H42.8801C43.2601 37.4558 43.6001 37.2858 43.8101 36.9858C44.0501 36.6458 44.1101 36.5558 43.1501 35.5458C42.9101 35.2958 42.6501 35.0158 42.4001 34.6958C41.7801 33.9158 40.1601 32.1758 38.8501 30.7758C38.2601 30.1358 37.7201 29.5658 37.3201 29.1258C36.5701 28.3058 36.5501 27.0458 37.2801 26.1958C38.4101 24.8858 41.1601 21.6058 42.2701 19.5358C42.3201 19.4458 42.4001 19.1658 42.4201 18.6658H37.4901C36.6801 19.8258 34.8001 22.4458 33.4801 23.7158C33.0301 24.1458 32.5501 24.5658 32.0701 24.9658C31.5301 25.4058 30.8101 25.5058 30.1701 25.2158C29.5301 24.9258 29.1201 24.3158 29.1101 23.6158L29.0401 18.6658H24.0501C24.3901 19.2058 24.5801 19.8758 24.5801 20.5958C24.5801 20.7258 24.5501 23.2858 24.5401 23.8258V23.9258L24.5901 27.6558C24.6001 28.4758 24.1401 29.1858 23.3801 29.5058C22.6301 29.8258 21.7901 29.6858 21.2001 29.1258C20.9801 28.9158 20.7501 28.7058 20.5401 28.4858C17.8901 25.8458 15.7401 22.5958 14.3301 19.0658C14.2501 18.8758 14.0601 18.7458 13.8401 18.7458L13.7301 18.7358C13.7101 18.7358 11.9801 18.5358 10.5101 18.5358C9.96013 18.5558 9.59013 18.5858 9.36013 18.6258Z" fill="#99FFFF"/>
<path d="M28.1205 56.0458C12.7905 56.0458 0.310547 43.5658 0.310547 28.2358C0.310547 12.9058 12.7905 0.425751 28.1205 0.425751C43.4505 0.425751 55.9305 12.9058 55.9305 28.2358C55.9305 43.5658 43.4505 56.0458 28.1205 56.0458ZM28.1205 2.04576C13.6805 2.04576 1.93055 13.7958 1.93055 28.2358C1.93055 42.6758 13.6805 54.4258 28.1205 54.4258C42.5605 54.4258 54.3105 42.6758 54.3105 28.2358C54.3105 13.7958 42.5605 2.04576 28.1205 2.04576Z" fill="#99FFFF"/>
</svg>
