<svg width="56" height="57" viewBox="0 0 56 57" fill="none" xmlns="http://www.w3.org/2000/svg">
<path d="M48.82 56.3857H7.41004C3.48004 56.3857 0.290039 53.1957 0.290039 49.2657V7.85574C0.290039 3.92574 3.48004 0.735748 7.41004 0.735748H48.82C52.75 0.735748 55.94 3.92574 55.94 7.85574V49.2657C55.94 53.1957 52.75 56.3857 48.82 56.3857ZM7.41004 2.26575C4.32004 2.26575 1.81004 4.77575 1.81004 7.86575V49.2758C1.81004 52.3658 4.32004 54.8758 7.41004 54.8758H48.82C51.91 54.8758 54.42 52.3658 54.42 49.2758V7.86575C54.42 4.77575 51.91 2.26575 48.82 2.26575H7.41004Z" fill="#99FFFF"/>
<path d="M41.2097 48.4458H15.9697C12.3797 48.4458 9.46973 45.5258 9.46973 41.9458V16.7057C9.46973 13.1157 12.3897 10.2057 15.9697 10.2057H41.2097C44.7997 10.2057 47.7097 13.1257 47.7097 16.7057V41.9458C47.7097 45.5258 44.7897 48.4458 41.2097 48.4458ZM15.9697 11.7258C13.2297 11.7258 10.9897 13.9557 10.9897 16.7057V41.9458C10.9897 44.6858 13.2197 46.9258 15.9697 46.9258H41.2097C43.9497 46.9258 46.1897 44.6958 46.1897 41.9458V16.7057C46.1897 13.9657 43.9597 11.7258 41.2097 11.7258H15.9697Z" fill="#99FFFF"/>
<path d="M28.1202 39.5757C22.8102 39.5757 18.4902 35.2558 18.4902 29.9458C18.4902 24.6358 22.8102 20.3158 28.1202 20.3158C33.4302 20.3158 37.7502 24.6358 37.7502 29.9458C37.7502 35.2558 33.4302 39.5757 28.1202 39.5757ZM28.1202 21.8458C23.6502 21.8458 20.0202 25.4858 20.0202 29.9458C20.0202 34.4158 23.6602 38.0457 28.1202 38.0457C32.5902 38.0457 36.2202 34.4058 36.2202 29.9458C36.2202 25.4758 32.5902 21.8458 28.1202 21.8458Z" fill="#99FFFF"/>
<path d="M39.1697 22.3058C37.5397 22.3058 36.2197 20.9857 36.2197 19.3557C36.2197 17.7257 37.5397 16.4058 39.1697 16.4058C40.7997 16.4058 42.1197 17.7257 42.1197 19.3557C42.1197 20.9757 40.7997 22.3058 39.1697 22.3058ZM39.1697 17.9258C38.3797 17.9258 37.7497 18.5658 37.7497 19.3458C37.7497 20.1358 38.3897 20.7657 39.1697 20.7657C39.9497 20.7657 40.5897 20.1258 40.5897 19.3458C40.5997 18.5658 39.9597 17.9258 39.1697 17.9258Z" fill="#99FFFF"/>
</svg>
