<svg width="310" height="343" viewBox="0 0 310 343" fill="none" xmlns="http://www.w3.org/2000/svg">
<path d="M155.133 229.786C152.696 229.786 150.068 229.443 147.478 228.529C129.462 222.321 113.275 210.59 101.924 195.545L98.7248 191.317C83.9847 171.854 68.7494 151.743 61.0175 127.938C60.9413 127.672 60.827 127.405 60.7509 127.138C59.9891 124.967 59.075 122.263 60.9794 120.13C61.4364 119.635 62.0078 119.216 62.6933 118.949C68.9398 116.512 87.9458 118.721 89.3551 118.911C93.0116 118.987 96.211 121.197 97.506 124.586C104.248 141.878 114.57 157.837 127.329 170.749C128.357 171.816 129.424 172.844 130.528 173.873C131.9 175.168 133.614 175.091 134.718 174.596C135.861 174.101 137.042 172.882 137.042 171.016L136.775 151.743C136.775 151.553 136.965 135.403 136.965 134.718C136.965 129.386 133.804 124.853 129.729 124.396C129.233 124.32 128.776 124.091 128.434 123.672C128.129 123.253 127.977 122.72 128.053 122.225C128.205 121.044 128.586 119.978 129.233 119.026C129.424 118.721 129.767 118.53 130.148 118.53H170.102C170.597 118.53 171.016 118.835 171.169 119.292C171.664 120.892 171.892 122.53 171.93 124.206L172.273 150.144C172.273 151.248 172.883 152.2 173.911 152.657C174.901 153.115 176.006 152.962 176.844 152.277C179.167 150.334 181.414 148.277 183.585 146.182C190.175 139.746 200.306 125.12 203.239 120.778C204.229 119.368 205.829 118.492 207.543 118.492H234.547C235.766 118.492 236.947 118.987 237.823 119.864C238.699 120.74 239.156 121.882 239.156 123.139C239.156 125.958 238.889 129.843 237.594 132.318C231.729 143.516 217.56 160.732 211.733 167.626C210.133 169.531 210.171 172.387 211.847 174.253C213.827 176.501 216.532 179.433 219.426 182.595C226.435 190.251 234.357 198.935 237.633 203.162C238.699 204.534 239.88 205.829 241.06 207.086C245.136 211.504 249.364 216.036 244.945 222.473C242.736 225.673 239.08 227.577 235.119 227.577H215.96C213.142 227.577 210.438 226.511 208.343 224.606C198.059 215.122 188.346 204.61 179.51 193.298C177.986 193.374 176.691 193.755 175.396 194.478C174.025 195.24 173.225 196.078 172.768 197.106L172.959 212.418C173.035 218.55 169.874 224.416 164.656 227.691C162.903 228.796 159.285 229.786 155.133 229.786ZM72.4439 120.016C68.7494 120.016 65.3595 120.282 63.4551 121.006C63.1123 121.12 62.8076 121.349 62.6172 121.577C61.6269 122.682 62.0458 124.206 62.8076 126.415C62.9219 126.681 62.9981 126.986 63.0742 127.253C70.6919 150.715 85.8129 170.673 100.439 189.984L103.676 194.25C114.798 208.952 130.605 220.416 148.201 226.472C154.181 228.529 160.961 227.387 163.551 225.787C168.122 222.93 170.902 217.788 170.826 212.418L170.635 196.878C170.635 196.726 170.673 196.573 170.75 196.421C171.549 194.326 173.187 193.183 174.368 192.536C176.082 191.546 177.91 191.088 180.005 191.05C180.196 191.05 180.348 191.088 180.5 191.165C180.653 191.241 180.881 191.393 180.995 191.546C189.87 202.896 199.582 213.484 209.904 223.006C211.58 224.53 213.751 225.368 215.998 225.368H235.119C238.318 225.368 241.327 223.806 243.117 221.216C246.355 216.493 243.955 213.484 239.423 208.571C238.242 207.276 237.023 205.943 235.88 204.496C232.643 200.344 224.416 191.317 217.789 184.08C214.856 180.881 212.19 177.948 210.171 175.701C207.771 173.035 207.733 168.921 210.019 166.179C215.808 159.361 229.824 142.259 235.614 131.252C236.452 129.652 236.909 126.757 236.909 123.101C236.909 122.454 236.642 121.844 236.185 121.387C235.728 120.93 235.119 120.663 234.471 120.663H207.467C206.476 120.663 205.524 121.159 204.953 121.996C201.144 127.595 191.546 141.345 184.995 147.744C182.786 149.877 180.5 151.972 178.139 153.952C176.653 155.209 174.635 155.476 172.844 154.676C171.054 153.876 169.95 152.162 169.912 150.182L169.569 124.244C169.569 123.063 169.417 121.882 169.112 120.701H130.643C130.376 121.197 130.224 121.73 130.148 122.263C135.251 123.025 139.06 128.319 139.06 134.756C139.06 135.442 138.87 151.134 138.87 151.781L139.136 171.016C139.174 173.492 137.765 175.663 135.518 176.653C133.271 177.643 130.719 177.186 128.929 175.51C127.824 174.482 126.758 173.416 125.691 172.349C112.741 159.209 102.267 142.983 95.4111 125.424C94.4208 122.872 91.9832 121.197 89.2028 121.159C89.1647 121.159 89.1266 121.159 89.0885 121.159C88.9742 121.082 80.0235 120.016 72.4439 120.016Z" fill="#20A6A3" stroke="#20A6A3" stroke-width="3.80882" stroke-miterlimit="10"/>
<path d="M160.77 312.285C235.72 312.285 296.479 250.299 296.479 173.835C296.479 97.3706 235.72 35.3842 160.77 35.3842C85.8206 35.3842 25.0619 97.3706 25.0619 173.835C25.0619 250.299 85.8206 312.285 160.77 312.285Z" stroke="#20A6A3" stroke-width="7.61764" stroke-linecap="round" stroke-linejoin="round"/>
</svg>
