<svg width="198" height="182" viewBox="0 0 198 182" fill="none" xmlns="http://www.w3.org/2000/svg">
<path d="M175.855 145.997L175.855 148.257L178.587 148.257L178.587 145.997L175.855 145.997Z" fill="#99FFFF"/>
<path d="M60.9379 138.357H58.2063C58.2063 138.357 58.2063 154.417 58.2063 154.467C58.2063 156.237 56.8845 157.677 55.2592 157.677C54.6228 157.677 54.0452 157.457 53.5654 157.087V158.687C54.3389 159.617 55.4355 160.197 56.6495 160.197C58.9896 160.197 60.9379 158.027 60.9379 155.377C60.9379 155.087 60.9379 154.647 60.9281 154.307L60.9379 138.357Z" fill="#99FFFF"/>
<path d="M81.9981 145.547C82.0079 145.037 81.9394 144.497 81.7925 143.957C81.1855 141.717 79.4036 140.197 77.6216 140.277H72.922V140.337H72.8828V160.057H75.6145V143.157C75.9082 143.167 76.1628 143.197 76.3586 143.247C76.8775 143.367 78.9042 143.617 79.2763 145.697C79.3742 146.227 79.2763 160.067 79.2763 160.067H82.0079L81.9981 145.547Z" fill="#99FFFF"/>
<path d="M110.049 154.777C110.039 155.287 110.108 155.827 110.254 156.367C110.861 158.607 112.643 160.127 114.425 160.047H119.125V159.987H119.164V140.267H116.433V157.167C116.139 157.157 115.884 157.127 115.688 157.077C115.169 156.957 113.143 156.707 112.771 154.627C112.673 154.097 112.771 140.257 112.771 140.257H110.039L110.049 154.777Z" fill="#99FFFF"/>
<path d="M70.7096 143.957C70.7096 143.917 70.69 143.737 70.6802 143.657C70.4844 141.877 69.1822 140.567 67.7724 140.277C66.6856 139.837 64.1693 139.977 64.1693 139.977V142.817C64.1693 142.817 65.9611 142.677 67.0674 143.127C67.2241 143.187 67.5863 143.517 67.7136 143.757C67.8017 143.917 67.8605 144.047 67.8801 144.257C67.8898 144.307 67.8996 145.177 67.9094 146.787C67.6647 146.777 67.4101 146.777 67.3709 146.777C66.2842 146.797 65.0309 146.917 64.0127 148.177C63.0042 149.427 62.877 151.557 62.877 153.517C62.877 157.047 64.2966 159.787 67.3709 159.947C67.7234 159.967 67.8703 159.957 68.1052 159.947C68.115 159.947 68.115 159.947 68.1248 159.947H70.5921C70.6606 159.947 70.7096 159.887 70.7096 159.817V143.967V143.957ZM65.5498 153.447C65.5498 152.397 65.6184 151.067 66.0002 150.237C66.3429 149.497 67.1164 149.257 67.929 149.327C67.9486 152.237 67.978 155.397 67.9975 157.557C66.6073 157.797 65.5498 155.647 65.5498 153.447Z" fill="#99FFFF"/>
<path d="M126.781 157.007C126.762 156.987 126.752 156.957 126.732 156.927V157.007H125.89C125.264 156.877 123.423 156.547 123.07 154.587C123.002 154.217 123.031 147.367 123.051 143.267L127.202 143.277L127.212 140.297L123.07 140.287V136.657H120.339V140.227V140.887V154.737C120.329 155.247 120.398 155.787 120.544 156.327C121.151 158.567 122.933 160.087 124.715 160.007H125.293H127.026H127.241V157.027H126.781V157.007Z" fill="#99FFFF"/>
<path d="M178.584 168.727H175.853V149.757L178.584 149.847V168.727Z" fill="#99FFFF"/>
<path d="M89.9189 140.277V143.257H93.0422V158.347H93.0226V160.057H95.7542V159.677H95.7737V143.257H98.9067V140.277H89.9189Z" fill="#99FFFF"/>
<path d="M152.962 165.787C152.942 165.767 152.933 165.737 152.913 165.707V165.787H152.071C151.444 165.657 149.604 165.327 149.251 163.367C149.183 162.997 149.212 156.147 149.232 152.047L153.383 152.057L153.393 149.077L149.251 149.067V145.437H146.519V149.007V149.667V163.517C146.51 164.027 146.578 164.567 146.725 165.107C147.332 167.347 149.114 168.867 150.896 168.787H151.474H153.207H153.422V165.807H152.962V165.787Z" fill="#99FFFF"/>
<path d="M155.086 163.357C155.076 163.867 155.145 164.407 155.292 164.947C155.899 167.187 157.681 168.707 159.462 168.627H164.162V168.567H164.201V148.847H161.47V165.747C161.176 165.737 160.921 165.707 160.725 165.657C160.207 165.537 158.18 165.287 157.808 163.207C157.71 162.677 157.808 148.837 157.808 148.837H155.076L155.086 163.357Z" fill="#99FFFF"/>
<path d="M107.582 145.527C107.474 143.257 106.182 140.547 103.587 140.477C103.577 140.477 103.568 140.477 103.558 140.477C103.548 140.477 103.538 140.477 103.529 140.477C103.519 140.477 103.509 140.477 103.499 140.477C103.489 140.477 103.48 140.477 103.47 140.477C100.875 140.547 99.573 143.257 99.4751 145.527C99.4359 146.457 99.2891 149.057 99.2891 150.007C99.2891 151.087 99.3576 153.537 99.4066 154.467C99.573 157.947 101.629 159.587 103.48 159.787V159.797C103.499 159.797 103.519 159.797 103.538 159.787C103.558 159.787 103.577 159.787 103.597 159.797V159.787C105.438 159.587 107.504 157.947 107.67 154.467C107.719 153.537 107.788 151.087 107.788 150.007C107.768 149.047 107.621 146.457 107.582 145.527ZM104.801 154.557C104.801 155.707 104.429 156.777 103.529 156.917C102.618 156.777 102.256 155.707 102.256 154.557C102.256 154.547 102.256 154.547 102.256 154.537V150.827V150.147V149.747V149.127V145.507C102.256 145.507 102.266 145.507 102.266 145.497C102.305 144.377 102.765 143.517 103.538 143.357C104.302 143.517 104.762 144.377 104.811 145.497C104.811 145.497 104.811 145.497 104.821 145.507V149.127V149.747V150.147V150.827V154.537C104.801 154.547 104.801 154.547 104.801 154.557Z" fill="#99FFFF"/>
<path d="M189.471 154.397C189.364 152.127 188.071 149.417 185.477 149.347C185.467 149.347 185.457 149.347 185.447 149.347C185.438 149.347 185.428 149.347 185.418 149.347C185.408 149.347 185.398 149.347 185.389 149.347C185.379 149.347 185.369 149.347 185.359 149.347C182.765 149.417 181.463 152.127 181.365 154.397C181.326 155.327 181.179 157.927 181.179 158.877C181.179 159.957 181.247 162.407 181.296 163.337C181.463 166.817 183.519 168.457 185.369 168.657V168.667C185.389 168.667 185.408 168.667 185.428 168.657C185.447 168.657 185.467 168.657 185.487 168.667V168.657C187.327 168.457 189.393 166.817 189.56 163.337C189.608 162.407 189.677 159.957 189.677 158.877C189.657 157.927 189.511 155.327 189.471 154.397ZM186.691 163.427C186.691 164.577 186.319 165.647 185.418 165.787C184.508 165.647 184.145 164.577 184.145 163.427C184.145 163.417 184.145 163.417 184.145 163.407V159.697V159.017V158.617V157.997V154.377C184.145 154.377 184.155 154.377 184.155 154.367C184.194 153.247 184.654 152.387 185.428 152.227C186.192 152.387 186.652 153.247 186.701 154.367C186.701 154.367 186.701 154.367 186.71 154.377V157.997V158.617V159.017V159.697V163.407C186.691 163.417 186.691 163.427 186.691 163.427Z" fill="#99FFFF"/>
<path d="M171.672 145.257V149.377H170.145V149.367C170.135 149.367 170.125 149.367 170.115 149.367C170.106 149.367 170.096 149.367 170.086 149.367C167.491 149.437 166.189 152.147 166.091 154.417C166.052 155.347 165.905 157.947 165.905 158.897C165.905 159.977 165.974 162.427 166.023 163.357C166.189 166.827 168.236 168.447 170.076 168.657V168.667H171.643V165.807H170.155C169.244 165.667 168.882 164.597 168.882 163.447C168.882 163.437 168.882 163.437 168.882 163.427V159.717V159.037V158.637V158.017V154.397C168.882 154.397 168.891 154.397 168.891 154.387C168.931 153.267 169.391 152.407 170.164 152.247L171.692 152.227V168.687H174.423V145.257H171.672Z" fill="#99FFFF"/>
<path d="M186.867 134.987H152.952V134.997C151.464 134.987 149.976 134.987 148.487 134.997C145.423 135.027 142.319 135.097 139.265 135.227V135.337C138.491 135.437 137.551 135.657 136.758 136.077C134.682 137.187 133.88 138.627 133.899 141.227C133.909 142.047 134.398 143.947 135.613 148.427C136.288 150.907 136.983 153.467 137.365 155.217C137.894 157.607 137.972 162.277 136.876 164.157C135.994 165.667 134.565 166.657 132.724 167.007C130.139 167.507 126.115 167.497 121.455 167.347C118.851 167.267 116.217 167.327 113.671 167.277C111.018 167.227 109.099 167.227 106.955 167.167V167.157H106.426C106.289 167.157 106.152 167.147 106.005 167.147V167.157L50.2271 167.187L50.0215 170.417L106.955 170.327V170.297C109.217 170.347 111.498 170.337 113.711 170.297C116.227 170.257 118.616 170.147 121.367 170.197C123.815 170.247 125.646 170.337 127.516 170.337C129.718 170.337 131.647 170.237 133.204 169.937C135.818 169.427 137.884 167.977 139.186 165.747C140.831 162.917 140.655 157.367 140.018 154.507C139.607 152.687 138.912 150.087 138.227 147.577C137.571 145.157 136.67 141.837 136.621 141.187C136.611 139.677 136.876 139.327 137.943 138.757C138.697 138.357 139.921 138.227 140.4 138.237V138.167C143.083 138.067 145.795 138.007 148.478 137.987C150.455 137.967 152.453 137.977 154.411 137.997V137.977H186.828V134.987H186.867Z" fill="#99FFFF"/>
<path d="M182.08 181.337H16.8212C8.03888 181.337 0.891602 174.037 0.891602 165.057V17.167C0.891602 8.19697 8.03888 0.896973 16.8212 0.896973H182.07C190.853 0.896973 198 8.19697 198 17.167V165.057C198.01 174.037 190.862 181.337 182.08 181.337ZM16.8212 3.87697C9.64457 3.87697 3.80926 9.83697 3.80926 17.167V165.057C3.80926 172.387 9.64457 178.347 16.8212 178.347H182.07C189.247 178.347 195.082 172.387 195.082 165.057V17.167C195.082 9.83697 189.247 3.87697 182.07 3.87697H16.8212Z" fill="#99FFFF"/>
<path d="M87.9419 34.8869C87.0412 33.3669 84.3976 30.0969 79.3064 32.6369C76.6727 33.9469 75.0768 36.3669 74.832 39.4569C74.832 39.4869 74.832 39.5169 74.8222 39.5269C74.1858 43.6269 74.9397 46.6069 77.0643 48.3969C78.3078 49.4469 79.7862 49.8669 81.2058 49.8669C82.3514 49.8669 83.4577 49.5869 84.3487 49.1469C87.3642 47.6569 88.2454 44.3969 88.6273 42.9969C88.9308 41.8269 89.9099 38.2169 87.9419 34.8869ZM86.4047 42.3869C86.0621 43.6569 85.4257 46.0169 83.3402 47.0469C81.9891 47.7169 79.982 47.8369 78.5232 46.5969C77.358 45.6069 76.8196 43.9469 76.9077 41.6569C77.2797 42.0469 77.7595 42.2869 78.298 42.2869C79.4729 42.2869 80.403 41.1669 80.403 39.7269C80.403 38.2869 79.4827 37.1669 78.298 37.1669C78.1021 37.1669 77.9161 37.1969 77.7399 37.2569C78.2784 36.1669 79.1302 35.3269 80.3149 34.7369C81.2254 34.2769 82.0674 34.0569 82.8213 34.0569C84.1235 34.0569 85.1809 34.7369 85.9837 36.0969C87.4328 38.5669 86.6887 41.3369 86.4047 42.3869Z" fill="#99FFFF"/>
<path d="M28.7169 52.697C26.7685 53.627 25.5936 54.757 24.8691 55.657C24.7712 55.777 24.6929 55.877 24.6635 55.917C24.0761 56.707 22.725 58.507 22.9698 60.387C23.0677 61.147 23.4887 62.437 24.3894 62.737C25.5936 63.127 27.0525 61.527 27.493 60.217C27.7868 59.347 27.7084 58.397 27.7084 58.397C27.6791 57.987 27.6007 57.647 27.5224 57.407C27.5616 58.907 26.8371 59.947 26.1419 59.997C25.672 60.027 25.2314 59.607 25.016 59.237C24.4677 58.307 25.016 57.167 25.1433 56.917C25.5936 56.047 26.3965 55.667 26.6902 55.527C27.493 55.147 27.8161 55.367 28.3448 54.887C28.4819 54.767 29.0008 54.297 29.0008 53.567C28.991 53.167 28.8148 52.847 28.7169 52.697Z" fill="#99FFFF"/>
<path d="M185.781 96.9069C185.595 96.6369 185.536 96.5769 185.438 96.4569L185.164 96.1169L184.067 94.7669L181.865 92.0669C180.396 90.2669 178.927 88.4669 177.449 86.6869C177.155 86.3369 176.861 85.9769 176.568 85.6269L177.468 85.3669C177.987 85.2169 178.379 84.7969 178.496 84.2469C178.614 83.6969 178.418 83.1369 177.997 82.7869L174.59 79.9169L177.116 78.5569C177.566 78.3169 177.86 77.8469 177.88 77.3269C177.909 76.8069 177.664 76.2969 177.243 76.0069C176.264 75.3269 175.314 74.6369 174.433 73.9469C174.335 73.8669 174.12 73.7069 173.963 73.5569C174.12 73.4569 174.316 73.4269 174.796 73.3569C175.04 73.3269 175.324 73.2869 175.657 73.2269C175.97 73.1669 176.284 73.0869 176.597 72.9869C177.175 72.8069 177.586 72.2569 177.615 71.6369C177.645 71.0069 177.282 70.4269 176.715 70.1969C174.286 69.1869 171.8 68.2669 169.303 67.4569C170.468 67.1069 171.633 66.7969 172.798 66.5069C173.836 66.2569 174.884 66.0169 175.931 65.8169C176.509 65.7069 176.95 65.2469 177.067 64.6569C177.185 64.0569 176.94 63.4569 176.44 63.1169C174.12 61.5569 171.78 60.2969 169.479 59.3869C169.117 59.2469 168.715 59.0869 167.903 58.7869C167.08 58.4769 165.817 57.9969 163.712 57.2069H163.703C164.349 56.9169 164.995 56.6369 165.651 56.3769C167.492 55.6369 169.381 54.9769 171.281 54.4369C171.878 54.2669 172.299 53.7169 172.328 53.0769C172.358 52.4369 171.986 51.8469 171.408 51.6169C168.96 50.6469 166.454 49.6769 163.957 48.7069C159.375 46.9369 157.202 46.1469 154.45 45.5369C158.964 44.2669 162.684 43.9669 165.68 43.7169C167.541 43.5669 169.44 43.4769 171.32 43.4569C171.946 43.4469 172.495 43.0269 172.671 42.4069C172.857 41.7769 172.622 41.1069 172.093 40.7369C169.949 39.2669 164.466 35.6469 159.914 33.8869C158.67 33.4069 157.466 33.0169 156.516 32.7469C157.358 32.6269 158.2 32.5469 159.032 32.5069H159.062C163.595 32.2969 166.591 32.1569 166.992 32.1869L167.031 32.1969C167.981 32.3169 169.744 32.5469 170.174 31.2169C170.37 30.6269 170.174 30.0269 169.606 29.4269C169.518 29.3369 169.42 29.2569 169.303 29.1869C162.469 25.1569 155.517 22.0069 148.625 19.8269C146.588 19.1769 143.759 18.3669 140.939 17.6169C141.115 17.3969 141.233 17.1169 141.272 16.8069C141.389 15.9869 140.939 15.2369 140.185 14.9769C134.497 13.0269 130.316 11.8669 127.046 11.3169C120.662 10.2569 118.048 10.0769 114.631 10.0969C111.958 10.1069 109.403 10.7869 108.571 11.0169C108.492 11.0369 108.434 11.0569 108.394 11.0669C107.327 11.3069 106.27 11.5969 105.222 11.9169C105.349 11.7169 105.477 11.5269 105.624 11.3469C105.947 10.9469 106.309 10.5969 106.72 10.3069C107.298 9.89693 107.533 9.12693 107.288 8.44693C107.043 7.76693 106.417 7.35693 105.721 7.41693C104.498 7.52693 103.264 7.72693 102.06 7.98693C100.356 8.35693 98.4176 8.78693 96.1559 9.95693C92.1612 12.0269 90.0366 14.9669 89.4786 15.8269C88.4995 17.3269 87.9512 18.8769 87.8827 19.0569V19.0669C87.8239 19.2469 87.7652 19.4369 87.7064 19.6269C76.0652 22.7269 64.8743 26.7769 54.4177 31.6869L53.0666 32.3169C43.8926 36.6069 22.4214 46.6669 16.7525 53.0369C15.7734 54.1369 12.66 57.9469 13.874 60.5969C14.0405 60.9469 14.2461 61.2269 14.4909 61.5369C14.765 61.8869 15.0979 62.3269 15.5091 63.0669C15.6462 63.3169 15.7734 63.5769 15.9007 63.8369C15.1762 64.3269 14.3146 65.1369 13.7565 66.4169C13.5705 66.8369 12.7089 69.0269 13.6195 71.3369C14.1482 72.6769 15.0293 73.4569 15.4014 73.7869C15.8224 74.1569 16.3315 74.3369 16.7134 74.4669C16.7232 74.4669 16.7427 74.4769 16.7623 74.4869C16.8211 74.7569 16.8896 75.0269 16.9777 75.2969C17.2617 76.5269 17.761 77.4169 18.1526 78.1069C18.2114 78.2169 18.2799 78.3269 18.3288 78.4269C18.554 78.8369 18.7499 79.1069 19.024 79.4969C19.1317 79.6369 19.2492 79.8069 19.396 80.0169C19.6408 80.3569 19.8856 80.6769 20.1206 80.9769C20.3555 81.2769 20.5807 81.5769 20.8059 81.8869C20.8647 81.9869 20.9136 82.0869 20.9528 82.1569C20.6884 83.7669 20.9919 85.6969 21.4227 86.9269C22.1179 88.9369 24.8593 89.7569 26.1223 89.6369C26.4748 89.6069 26.7979 89.5369 27.0818 89.4569C27.1406 90.3769 27.3853 91.4369 28.0217 92.4769C28.6386 93.4869 29.8428 94.7969 32.0555 95.2669C33.9843 95.6769 35.5606 95.0569 36.3537 94.6369L51.0007 87.5769C51.1672 87.4969 51.314 87.3769 51.4315 87.2169C52.0875 86.3169 52.9197 84.8169 53.1253 82.7669C53.2722 81.2869 53.0372 80.0069 52.7435 79.0569L64.4925 74.5969C66.245 77.1969 68.3402 79.4569 70.7292 81.3169C74.4203 84.1769 77.8569 85.2969 80.1284 86.0369C85.8266 87.8869 90.3989 87.7869 94.4425 87.6969C98.0259 87.6169 100.669 87.1969 103.284 86.2869C103.568 86.1869 103.842 86.0869 104.096 85.9869C104.018 86.2269 104.008 86.5369 104.184 86.9369H104.175L104.341 87.2569C104.87 88.2869 106.456 91.3869 108.081 94.5069C109.853 97.9769 112.037 102.277 114.396 106.997C114.523 107.257 114.739 107.447 114.984 107.547C116.237 109.887 117.431 112.107 118.851 114.807C121.494 119.877 124.128 125.137 126.684 130.457C127.026 131.167 127.633 131.707 128.368 131.927C128.612 131.997 128.857 132.037 129.112 132.037C129.591 132.037 130.052 131.907 130.482 131.637C140.89 125.167 151.572 118.877 162.234 112.917C164.564 111.617 166.924 110.317 169.283 109.027C170.928 108.137 172.573 107.257 174.228 106.377C176.205 105.327 178.193 104.287 180.181 103.257L183.167 101.717L184.665 100.947L184.851 100.847C184.958 100.787 185.076 100.727 185.184 100.637C185.399 100.477 185.595 100.277 185.761 100.057C186.084 99.6069 186.261 99.0469 186.27 98.4769C186.251 97.9469 186.084 97.3669 185.781 96.9069ZM175.295 83.5469L174.923 83.6469C174.531 83.1769 174.149 82.7169 173.758 82.2469L175.295 83.5469ZM91.4171 17.1269C91.8969 16.3969 93.718 13.8669 97.2133 12.0569C99.2106 11.0269 100.914 10.6469 102.559 10.2869C102.951 10.2069 103.333 10.1269 103.724 10.0569C103.088 10.9069 102.608 11.8669 102.324 12.9369C102.177 13.4769 102.334 14.0469 102.726 14.4269C103.117 14.7969 103.665 14.9169 104.165 14.7469C105.721 14.1969 107.317 13.7269 108.923 13.3569C108.972 13.3469 109.06 13.3269 109.178 13.2869C109.941 13.0869 112.281 12.4569 114.67 12.4469C117.549 12.4269 119.938 12.5069 126.713 13.6369C129.19 14.0469 132.343 14.8669 136.298 16.1369C135.985 16.1769 135.74 16.2069 135.534 16.2369C135.476 16.2469 135.407 16.2569 135.348 16.2569C134.771 16.1869 134.634 16.2769 134.418 16.4069C134.134 16.5869 133.939 16.8869 133.88 17.2169C133.821 17.5869 133.939 17.9769 134.193 18.2469C134.506 18.5869 134.859 18.6469 135.29 18.6169C136.886 18.9269 143.573 20.6669 147.979 22.0669C153.922 23.9469 159.914 26.5669 165.827 29.8669C164.633 29.9069 162.577 29.9969 158.993 30.1669H158.964C156.722 30.2669 154.421 30.6469 152.13 31.2769C151.484 31.4569 151.053 32.0569 151.082 32.7469C151.112 33.4369 151.591 33.9969 152.247 34.1169C152.894 34.2369 153.55 34.3769 154.186 34.5269C154.206 34.5369 156.634 35.1169 159.14 36.0869C162.322 37.3169 166.033 39.5369 168.598 41.1969C167.57 41.2369 166.542 41.3069 165.524 41.3869C162.42 41.6369 158.562 41.9469 153.814 43.2969C152.688 43.6169 151.552 43.9869 150.446 44.3769C149.819 44.6069 149.428 45.2469 149.496 45.9369C149.565 46.6169 150.074 47.1569 150.73 47.2469C151.621 47.3669 152.522 47.5269 153.403 47.7069C156.301 48.2969 158.376 49.0569 163.174 50.8969C164.887 51.5569 166.61 52.2269 168.324 52.8969C167.149 53.2869 165.974 53.7169 164.829 54.1869C163.507 54.7169 162.195 55.3169 160.912 55.9469C160.393 56.2069 160.07 56.7569 160.1 57.3569C160.129 57.9569 160.491 58.4669 161.03 58.6769C161.558 58.8769 162.205 59.1269 162.929 59.3969C165.024 60.1969 166.297 60.6669 167.12 60.9869C167.913 61.2869 168.314 61.4369 168.657 61.5769C170.233 62.1969 171.839 62.9969 173.435 63.9569C173.043 64.0469 172.651 64.1369 172.27 64.2369C170.165 64.7569 168.04 65.3669 165.974 66.0769C165.367 66.2769 164.975 66.8569 164.985 67.5169C164.995 68.1769 165.416 68.7369 166.033 68.9069C166.796 69.1269 167.56 69.3669 168.314 69.6069C169.959 70.1269 171.594 70.7069 173.219 71.3269C172.945 71.4369 172.661 71.5969 172.377 71.8369C172.123 72.0569 171.594 72.4969 171.506 73.2869C171.359 74.5369 172.436 75.3769 173.004 75.8269C173.572 76.2769 174.169 76.7269 174.786 77.1669L172.377 78.4669C171.946 78.6969 171.663 79.1369 171.614 79.6269C171.614 79.6669 171.614 79.7169 171.604 79.7569C170.556 78.5169 169.499 77.2869 168.441 76.0669C166.924 74.3169 165.396 72.5769 163.869 70.8369C162.342 69.1069 160.834 67.3769 159.355 65.6069C156.399 62.0769 153.559 58.4269 150.691 54.7669C149.251 52.9369 147.802 51.1069 146.304 49.3169C144.806 47.5269 143.259 45.7669 141.683 44.0669C140.89 43.2169 140.087 42.3769 139.275 41.5469L138.697 40.8969C138.491 40.6869 138.295 40.4869 138.07 40.2769C137.826 40.0369 137.581 39.8069 137.336 39.5869C136.279 38.5169 135.202 37.4769 134.115 36.4669C134.565 36.4269 135.016 36.3969 135.476 36.3669C136.004 36.3269 136.543 36.2869 137.111 36.2069C137.258 36.1869 137.395 36.1669 137.551 36.1369L137.777 36.0969L138.012 36.0369C138.178 35.9969 138.286 35.9569 138.423 35.9169L138.805 35.7969C139.314 35.6369 139.823 35.4669 140.342 35.2969C140.851 35.1269 141.37 34.9169 141.83 34.7569C142.251 34.6069 142.672 34.4869 143.113 34.3669C143.367 34.3869 143.602 34.3769 143.827 34.3669C144.004 34.3569 144.18 34.3469 144.346 34.3269C144.708 34.2869 145.1 34.2269 145.482 34.1369C145.942 34.1769 146.794 34.1969 147.489 33.5469C148.076 32.9969 148.174 32.4369 148.145 32.0669C148.116 31.5569 147.871 31.1869 147.528 30.8969C146.98 30.0969 145.923 29.8269 144.973 29.5769C144.376 29.4269 143.769 29.2669 143.23 29.0069C142.261 28.5369 141.34 28.0369 140.41 27.5169C139.764 27.1469 139.118 26.7569 138.364 26.3069C137.737 25.9269 137.032 25.5069 136.2 25.0169C135.407 24.5169 134.546 23.9969 133.165 23.2469C130.512 21.7169 128.749 20.7969 126.772 20.0869C126.762 20.0869 126.752 20.0769 126.752 20.0769C126.194 19.8569 125.636 19.6569 125.058 19.4869C123.56 18.9969 122.062 18.6169 120.163 18.5169C118.273 18.4169 117.539 18.4269 113.437 18.7569C113.241 18.7669 113.035 18.7769 112.8 18.7769C112.242 18.7969 111.841 18.7769 111.488 18.7569C110.92 18.7269 110.431 18.7069 109.706 18.8369C109.158 18.9369 108.463 19.1269 107.229 19.4869C106.084 19.6569 105.046 19.8369 104.38 20.0169C102.344 19.3069 100.258 18.8569 98.163 18.6469C98.163 18.6469 98.163 18.6469 98.1532 18.6469C98.1532 18.6469 98.1532 18.6469 98.1434 18.6469H98.1336C98.1238 18.6469 98.114 18.6469 98.1043 18.6469C98.0455 18.6369 97.977 18.6369 97.9182 18.6269C96.9587 18.5469 95.2062 18.4569 93.0816 18.6469C92.1808 18.7269 91.2801 18.8469 90.3891 19.0169C90.6339 18.4969 90.9766 17.8069 91.4171 17.1269ZM22.7249 80.6169C22.4704 80.1869 22.1375 79.6969 21.7263 79.1069C21.5402 78.8469 21.3542 78.5569 21.1584 78.2669C24.1348 77.2769 29.4806 75.0569 32.2905 72.7469L32.4961 72.5769C34.6011 70.8469 35.7565 69.8969 36.2362 69.1269C36.2558 69.0969 36.3243 69.0169 36.3831 68.9669C36.6866 68.6469 37.1957 68.1069 37.088 67.3569C36.9901 66.6569 36.432 66.0669 35.9621 65.8169C35.5998 65.6369 35.2571 65.6169 34.9732 65.7669C34.8165 65.8569 34.6991 65.9969 34.6501 66.1769C34.5718 66.4669 34.6991 66.7069 34.7774 66.8469C34.8557 66.9969 34.9536 67.1569 34.9438 67.4369C34.9438 67.7269 34.7382 68.1869 34.5816 68.5169C34.4249 68.8769 34.3074 69.1369 34.2878 69.3969C33.671 69.9569 32.7996 70.6769 31.7031 71.5769L31.4975 71.7469C28.7071 74.0369 23.1361 76.3069 20.4339 77.1669C20.0324 76.5069 19.6506 75.8269 19.3667 75.1669C20.3262 75.2069 21.4815 75.1169 22.5389 74.7369C24.5852 74.0069 25.7601 72.5969 26.2594 71.9969C27.4441 70.5769 27.8847 69.2869 28.2861 68.1469C28.4329 67.7269 28.57 67.3369 28.7365 66.9369C30.0974 63.7169 33.3773 60.3969 36.295 60.6369C38.4391 60.8169 39.9959 62.8169 40.5735 63.6669C41.0924 64.4469 41.5232 67.3569 42.1205 71.3969C42.5513 74.2869 42.659 75.5969 42.0519 76.8569C41.9247 77.1269 41.533 77.9369 40.7204 78.4369C39.8099 79.0069 39.242 78.9769 38.9287 78.8469C38.772 78.7869 38.7329 78.7469 38.4489 78.3669C38.2042 78.0369 37.8615 77.5869 37.2838 77.0269C36.5887 76.3669 35.7271 75.5369 34.4739 75.1269C33.3675 74.7569 31.5758 74.5969 29.2945 75.9169C28.3155 76.4869 27.7965 77.0769 27.2581 77.6969C27.0427 77.9469 26.8273 78.1969 26.5531 78.4769C25.7992 79.2469 24.595 80.0169 22.862 80.8169C22.8228 80.7569 22.7739 80.6869 22.7249 80.6169ZM183.881 98.5469C183.872 98.5569 183.862 98.5669 183.852 98.5769C183.842 98.5869 183.842 98.5769 183.823 98.5969L183.637 98.6969L182.148 99.4769L179.162 101.047C177.175 102.097 175.197 103.157 173.219 104.227C171.555 105.127 169.89 106.037 168.236 106.947C165.847 108.247 163.468 109.557 161.108 110.877C150.416 116.847 139.705 123.167 129.268 129.647C129.18 129.697 129.092 129.717 128.994 129.687C128.887 129.657 128.789 129.567 128.73 129.447C126.174 124.097 123.521 118.807 120.868 113.717C119.429 110.967 118.224 108.717 116.942 106.337C115.189 103.067 113.192 99.3669 110.147 93.4969C110.127 93.4669 110.118 93.4369 110.098 93.4069C108.365 90.0169 107.014 87.4169 106.28 85.9969L106.201 85.8369C106.045 85.5669 105.859 85.4069 105.663 85.3169C106.035 85.1469 106.338 84.9969 106.554 84.8869C110.94 82.6069 113.535 79.5669 115.826 76.8769C118.136 74.1669 121.015 70.7869 122.777 65.2669C123.746 62.2069 124.226 58.9869 124.177 55.6869C124.167 55.0469 123.658 54.5269 123.032 54.5269C123.022 54.5269 123.022 54.5269 123.012 54.5269C122.376 54.5369 121.876 55.0669 121.876 55.7169C121.915 58.7669 121.485 61.7369 120.584 64.5469C118.968 69.6169 116.256 72.7969 114.083 75.3469C111.821 77.9969 109.491 80.7369 105.496 82.8069C105.095 83.0169 103.998 83.5569 102.53 84.0669C100.151 84.8869 97.7126 85.2769 94.3642 85.3469C90.3206 85.4369 86.1399 85.5369 80.8039 83.7969C78.552 83.0669 75.4777 82.0669 72.0999 79.4469C69.6816 77.5669 67.5961 75.2469 65.8925 72.5369C65.5988 72.0769 65.0309 71.8769 64.5316 72.0769L50.8343 77.2769C50.5308 77.3969 50.286 77.6369 50.1685 77.9369C50.051 78.2469 50.0608 78.5869 50.1979 78.8869C50.5014 79.5269 50.9909 80.8569 50.8245 82.5269C50.6874 83.9269 50.1391 84.9869 49.7377 85.5869L35.355 92.5369C35.3355 92.5469 35.3257 92.5569 35.3061 92.5569C34.8068 92.8269 33.7787 93.2469 32.5353 92.9769C31.3898 92.7269 30.5282 92.1469 29.9701 91.2369C29.0596 89.7469 29.412 88.0669 29.5001 87.7469C29.6078 87.3369 29.4806 86.8969 29.1868 86.6069L29.3043 86.1269L28.8931 86.3969C28.5406 86.2169 28.1196 86.2369 27.777 86.4569C27.6986 86.5069 27.6105 86.5669 27.5224 86.6369C27.1601 86.8969 26.7098 87.2269 25.9167 87.2969C25.3978 87.3469 23.8313 86.8369 23.5865 86.1369C23.3222 85.3769 23.1263 84.2569 23.1557 83.2469C25.5251 82.2169 27.1308 81.2269 28.198 80.1269C28.5113 79.7969 28.7658 79.5069 28.991 79.2569C29.4708 78.7069 29.7939 78.3369 30.4401 77.9569C31.6835 77.2369 32.8094 77.0369 33.7787 77.3569C34.5424 77.6169 35.1494 78.1869 35.7271 78.7469C36.1775 79.1769 36.4222 79.5069 36.6474 79.7969C36.9999 80.2569 37.3524 80.7369 38.1356 81.0469C38.9287 81.3569 40.2406 81.5069 41.9345 80.4469C43.3247 79.5869 43.9416 78.3069 44.1374 77.8869C45.0675 75.9469 44.8521 74.0169 44.4115 71.0469C43.6283 65.7369 43.2758 63.5269 42.4925 62.3469C41.7386 61.2169 39.6434 58.5569 36.5104 58.2969C32.3689 57.9569 28.3448 62.0169 26.6608 66.0069C26.465 66.4769 26.3083 66.9269 26.1517 67.3569C25.7699 68.4469 25.4468 69.3869 24.546 70.4669C24.1348 70.9669 23.2732 71.9969 21.8144 72.5169C20.5709 72.9569 19.0632 72.8269 18.4072 72.7069C18.1037 72.4669 17.7316 72.3369 17.4575 72.2469C17.291 72.1869 16.9973 72.0869 16.919 72.0169C16.6448 71.7769 16.0868 71.2769 15.7637 70.4669C15.186 69.0069 15.793 67.5469 15.8714 67.3769C16.4392 66.0869 17.5064 65.5769 17.8197 65.4469C18.4072 65.2069 18.6911 64.5369 18.4659 63.9369C18.2016 63.2369 17.8981 62.5569 17.5358 61.9169C17.0463 61.0169 16.6252 60.4769 16.3315 60.0869C16.1651 59.8769 16.0378 59.7069 15.9888 59.5969C15.5972 58.7569 16.9973 56.2969 18.4855 54.6169C23.8411 48.5969 45.0088 38.6869 54.0555 34.4469L55.4164 33.8069C66.0688 28.8069 77.4946 24.6969 89.3904 21.6069C89.8506 21.5169 90.3108 21.4369 90.771 21.3669C91.4171 21.2669 92.2983 21.1569 93.9627 21.0669C95.9405 20.9569 97.0077 20.8969 97.7518 20.9569C97.8203 20.9669 97.8791 20.9669 97.9378 20.9769C99.191 21.1169 100.317 21.4269 101.746 21.8269C101.893 21.8669 102.04 21.9069 102.177 21.9469C103.362 22.2869 104.38 22.5769 105.751 22.3369C105.927 22.3069 106.015 22.2769 106.231 22.2169C106.397 22.1669 106.691 22.0769 107.259 21.9069C107.415 21.8569 107.572 21.8169 107.709 21.7769C109.706 21.4869 112.183 21.1969 113.584 21.0869C114.288 21.0569 114.827 21.0169 115.346 20.9769C116.07 20.9169 116.756 20.8669 117.833 20.8569C117.852 20.8569 120.134 20.8369 122.542 21.2869C123.169 21.4069 123.756 21.5469 124.324 21.7069C124.853 21.8769 125.381 22.0669 125.949 22.2769C127.281 22.8069 128.671 23.5169 130.492 24.4669C131.089 24.7769 131.608 25.0469 132.059 25.2969C132.93 25.7969 133.909 26.3769 135.025 27.0269C135.172 27.1169 135.309 27.2069 135.446 27.2969C136.279 27.8169 137.14 28.3669 138.57 29.1669C138.814 29.3069 139.069 29.4469 139.314 29.5769C140.175 30.0669 141.076 30.5469 142.222 31.1069C142.241 31.1169 142.261 31.1269 142.28 31.1369C142.799 31.3869 143.328 31.6369 143.886 31.8769C143.631 31.9069 143.338 31.9469 143.005 31.9969L142.936 31.9869L142.789 32.0269C142.623 32.0469 142.457 32.0769 142.271 32.0969C141.84 32.1569 141.125 32.3369 139.402 32.7869C138.276 33.0869 137.757 33.2269 137.395 33.3269C137.052 33.4169 136.866 33.4769 136.396 33.5869C135.583 33.7869 134.947 33.9269 134.438 34.0169C134.203 34.0369 133.968 34.0469 133.733 34.0669C133.194 34.1069 132.656 34.1669 132.108 34.2369C131.559 34.3169 131.011 34.4169 130.463 34.5469L128.231 35.0769L129.993 36.6769C130.463 37.1069 130.913 37.4669 131.373 37.8269L132.715 38.8869C133.606 39.5869 134.467 40.2869 135.299 41.0269C135.711 41.3969 136.122 41.7669 136.504 42.1469C136.7 42.3369 136.895 42.5369 137.091 42.7469L137.688 43.3569C138.295 43.9769 138.883 44.6069 139.48 45.2469C141.791 47.8069 143.377 49.8169 144.65 51.4269L144.855 51.6869C147.029 54.4269 149.271 57.1469 151.493 59.8169C153.481 62.3569 155.488 64.8969 157.564 67.3869C159.052 69.1869 160.589 70.9369 162.116 72.6669C162.381 72.9669 162.645 73.2669 162.91 73.5669C166.238 77.5869 169.646 81.6569 173.092 85.7369C173.268 85.9469 173.503 86.0969 173.748 86.1769C174.384 86.9269 175.011 87.6869 175.647 88.4469C177.136 90.2269 178.604 92.0069 180.073 93.7969L182.276 96.4769L183.382 97.8169L183.656 98.1469C183.725 98.2369 183.832 98.3669 183.852 98.3869C183.862 98.3969 183.872 98.4069 183.872 98.4269C183.881 98.4369 183.881 98.4569 183.881 98.4669C183.911 98.4969 183.891 98.5269 183.881 98.5469Z" fill="#99FFFF"/>
</svg>
