<svg width="319" height="319" viewBox="0 0 319 319" fill="none" xmlns="http://www.w3.org/2000/svg">
<path d="M256.03 319H67.8271C33.1978 319 4.85669 290.659 4.85669 256.03V67.827C4.85669 33.1977 33.1978 4.85657 67.8271 4.85657H256.03C290.659 4.85657 319 33.1977 319 67.827V256.03C319 290.659 290.659 319 256.03 319Z" stroke="#20A6A3" stroke-width="8.85659" stroke-miterlimit="10"/>
<path d="M228.486 272.857H100.818C77.3481 272.857 58.085 253.638 58.085 230.124V102.501C58.085 79.0305 77.3038 59.7675 100.818 59.7675H228.486C251.956 59.7675 271.219 78.9863 271.219 102.501V230.168C271.175 253.638 251.956 272.857 228.486 272.857Z" stroke="#20A6A3" stroke-width="8.85659" stroke-miterlimit="10"/>
<path d="M161.928 221.4C190.347 221.4 213.385 198.362 213.385 169.944C213.385 141.525 190.347 118.487 161.928 118.487C133.509 118.487 110.471 141.525 110.471 169.944C110.471 198.362 133.509 221.4 161.928 221.4Z" stroke="#20A6A3" stroke-width="8.85659" stroke-miterlimit="10"/>
<path d="M226.094 121.188C233.113 121.188 238.803 115.498 238.803 108.479C238.803 101.46 233.113 95.7695 226.094 95.7695C219.075 95.7695 213.385 101.46 213.385 108.479C213.385 115.498 219.075 121.188 226.094 121.188Z" fill="#20A6A3" stroke="#20A6A3" stroke-width="8.85659" stroke-miterlimit="10"/>
</svg>
