<svg width="56" height="56" viewBox="0 0 56 56" fill="none" xmlns="http://www.w3.org/2000/svg">
<path d="M41.88 14.1358C38.05 9.42575 31.23 8.82575 25.7 10.1558C20.62 11.3758 16.53 15.0758 15.47 20.2958C14.92 22.9758 15.13 25.9558 16.99 28.0958C17.69 28.9058 19.48 30.6658 20.58 29.5958C21.18 29.0158 21.1 27.7458 21.01 26.9958C18.64 24.3458 18.89 20.3858 20.75 17.5258C22.57 14.7258 26 13.2158 29.26 13.0258C32.65 12.8358 36.02 13.5058 38.09 16.4458C39.92 19.0358 39.53 22.3358 38.93 25.0858C38.18 28.4658 34.14 34.0758 30.01 30.9058C27.64 29.0958 29.15 26.2358 29.97 24.0558C30.51 22.6258 31.16 20.9458 30.58 19.4358C30.41 18.9958 30.11 18.5458 29.74 18.2058C29.19 17.4758 28.02 17.4458 27.77 17.4358C26.27 17.3958 25.25 18.5258 24.99 18.8058C23.64 20.2958 23.73 22.2858 23.77 23.2758C23.82 24.4558 24.12 25.3958 24.36 25.9758C23.34 29.9858 22.32 33.9958 21.3 38.0058C21.21 38.7358 21.14 39.5258 21.1 40.3558C21.03 42.1658 21.16 44.8758 21.37 46.2558C21.72 46.0058 24.72 42.1858 24.72 42.1858L27.41 32.5858C27.83 33.0958 28.33 33.5558 28.94 33.9458C33.69 37.0358 40.25 33.5558 42.73 29.1558C45.29 24.5958 45.28 18.3158 41.88 14.1358Z" fill="#99FFFF"/>
<path d="M28.1202 55.7858C12.7502 55.7858 0.240234 43.2758 0.240234 27.9058C0.240234 12.5358 12.7502 0.0257568 28.1202 0.0257568C43.4902 0.0257568 56.0002 12.5358 56.0002 27.9058C56.0002 43.2758 43.4902 55.7858 28.1202 55.7858ZM28.1202 1.78576C13.7202 1.78576 2.00023 13.5058 2.00023 27.9058C2.00023 42.3058 13.7102 54.0258 28.1202 54.0258C42.5302 54.0258 54.2402 42.3058 54.2402 27.9058C54.2402 13.5058 42.5202 1.78576 28.1202 1.78576Z" fill="#99FFFF"/>
</svg>
