<svg width="56" height="56" viewBox="0 0 56 56" fill="none" xmlns="http://www.w3.org/2000/svg">
<path d="M28.1199 0.625755C12.9899 0.625755 0.669922 12.9358 0.669922 28.0758C0.669922 43.2158 12.9799 55.5258 28.1199 55.5258C43.2599 55.5258 55.5699 43.2158 55.5699 28.0758C55.5699 12.9358 43.2499 0.625755 28.1199 0.625755ZM23.2299 33.3758V27.4658H27.8699V20.4858C27.8699 17.6258 28.6599 15.5558 30.2899 14.1758C31.5699 13.0858 33.9599 11.7858 38.0399 11.7858L42.4099 11.9458V17.0558H38.2399C37.1999 17.0558 36.3899 17.3858 35.8199 18.0458C35.2799 18.6658 35.0099 19.4758 35.0099 20.4258V27.4658H43.4999L42.3299 33.3758H35.0099V52.9858C32.6899 53.6158 30.2899 53.9158 27.8799 53.8958V33.3758H23.2299ZM36.4899 52.6458V34.8558H43.5499L45.2999 25.9958H36.4899V20.4258C36.4899 19.8258 36.6399 19.3658 36.9399 19.0158C37.2199 18.6958 37.6399 18.5358 38.2399 18.5358H43.8899V10.5258L38.0699 10.3158C33.5199 10.3158 30.8099 11.8058 29.3399 13.0558C27.3899 14.7158 26.3999 17.2158 26.3999 20.4958V25.9958H21.7599V34.8558H26.3999V53.9758C12.8799 53.0858 2.14992 41.8158 2.14992 28.0658C2.14992 13.7458 13.7999 2.09576 28.1199 2.09576C42.4399 2.09576 54.0899 13.7458 54.0899 28.0658C54.0899 39.4558 46.7099 49.1558 36.4899 52.6458Z" fill="#99FFFF"/>
</svg>
