<svg width="52" height="38" viewBox="0 0 52 38" fill="none" xmlns="http://www.w3.org/2000/svg">
<path d="M0.104492 0.663086V2.62951V35.6047V37.5711H51.604V35.6047V2.62951V0.663086H0.104492ZM31.5407 19.6012L26.8662 24.2979C26.298 24.8258 25.4088 24.8249 24.8646 24.3202L20.167 19.6012L20.2082 19.5608L3.2348 2.37974H48.4849L31.4995 19.5617L31.5407 19.6012ZM17.7208 19.5746L1.82114 34.8716V3.60113L17.7208 19.5746ZM18.931 20.7908L23.6715 25.5537C24.2801 26.121 25.0612 26.406 25.8457 26.406C26.6379 26.406 27.4336 26.115 28.061 25.5305L32.7784 20.7908L48.4316 35.8544H3.26828L18.931 20.7908ZM33.9886 19.5754L49.8874 3.60028V34.8716L33.9886 19.5754Z" fill="#D3CBFF"/>
</svg>
