<svg width="54" height="55" viewBox="0 0 54 55" fill="none" xmlns="http://www.w3.org/2000/svg">
<path d="M34.7001 34.1558C34.7901 34.0058 35.0001 33.6558 35.1101 33.1458C35.1801 32.7958 35.1901 32.4858 35.1701 32.2558C35.1601 32.1058 35.0701 31.9758 34.9401 31.9058C33.7601 31.3158 32.5801 30.7258 31.4001 30.1258C31.2501 30.0558 31.0701 30.0857 30.9601 30.2057C30.3901 30.7957 29.8301 31.2757 29.2701 31.8557C29.1901 31.9357 29.0901 32.0057 28.9801 32.0457C28.8801 32.0857 28.7601 32.1358 28.6201 32.1158C27.9501 32.0058 27.4901 31.6858 27.1101 31.3958C26.3101 30.7958 25.6301 30.1957 25.0901 29.7057C24.5501 29.2157 23.8901 28.5858 23.2001 27.8458C22.8701 27.4858 22.5001 27.0658 22.3301 26.4058C22.3001 26.2758 22.3301 26.1457 22.3601 26.0457C22.3901 25.9357 22.4501 25.8257 22.5201 25.7357C23.0401 25.1157 23.4601 24.5158 24.0001 23.8958C24.1101 23.7658 24.1201 23.5858 24.0401 23.4458C23.3401 22.3258 22.6401 21.2058 21.9301 20.0958C21.8501 19.9658 21.7101 19.8958 21.5601 19.8958C21.3201 19.8958 21.0201 19.9258 20.6701 20.0358C20.1801 20.1858 19.8401 20.4358 19.7001 20.5358C19.2001 20.9258 18.9501 21.3758 18.7701 21.7358C18.6201 22.0158 18.3301 22.6458 18.2501 23.5058C18.1701 24.3958 18.3501 25.0557 18.5201 25.6057C18.8101 26.6057 19.2501 27.3658 19.6701 28.0058C20.2801 28.9358 21.3401 30.3558 23.0601 31.8958C24.7701 33.4558 26.2801 34.3758 27.2701 34.8958C27.9501 35.2558 28.7501 35.6158 29.7701 35.8158C30.3301 35.9258 31.0101 36.0458 31.8901 35.8758C32.7401 35.7158 33.3401 35.3558 33.6001 35.1858C33.9401 34.9858 34.3601 34.6958 34.7001 34.1558Z" fill="#99FFFF"/>
<path d="M31.0298 36.1758C30.5098 36.1758 30.0798 36.0958 29.7298 36.0258C28.6398 35.8158 27.8298 35.4358 27.1698 35.0858C25.6998 34.3158 24.2798 33.2958 22.9198 32.0558L22.7598 31.9158C21.4698 30.7258 20.3698 29.4558 19.4998 28.1258C19.0898 27.5058 18.6398 26.7258 18.3298 25.6658C18.1798 25.1458 17.9698 24.4358 18.0598 23.4858C18.1198 22.8458 18.3098 22.2058 18.6098 21.6358C18.7898 21.3058 19.0498 20.8058 19.5998 20.3758C19.8998 20.1458 20.2598 19.9558 20.6298 19.8358C20.9398 19.7358 21.2598 19.6858 21.5698 19.6858H21.5798C21.7998 19.6858 21.9998 19.7958 22.1098 19.9758L24.2198 23.3358C24.3498 23.5458 24.3298 23.8258 24.1598 24.0258C23.8698 24.3558 23.6098 24.6957 23.3598 25.0157C23.1398 25.2957 22.9198 25.5757 22.6898 25.8557C22.6298 25.9257 22.5898 26.0058 22.5698 26.0858C22.5398 26.1858 22.5198 26.2758 22.5398 26.3458C22.6898 26.9358 23.0098 27.3158 23.3598 27.6958C23.9398 28.3258 24.5698 28.9457 25.2298 29.5457L25.3798 29.6758V29.6858C25.9898 30.2358 26.6098 30.7558 27.2398 31.2258C27.6498 31.5358 28.0598 31.8158 28.6598 31.9158C28.7298 31.9258 28.8198 31.8958 28.8998 31.8658C28.9998 31.8258 29.0698 31.7758 29.1398 31.7158C29.3998 31.4558 29.6598 31.2058 29.9198 30.9658C30.2198 30.6858 30.5298 30.3957 30.8398 30.0757C31.0198 29.8957 31.2898 29.8457 31.5198 29.9557L35.0598 31.7357C35.2598 31.8357 35.3798 32.0258 35.3998 32.2458C35.4298 32.5658 35.4098 32.8858 35.3398 33.1958C35.2598 33.5758 35.1098 33.9458 34.8998 34.2758C34.5298 34.8658 34.0698 35.1658 33.7398 35.3758C33.2098 35.7258 32.5898 35.9758 31.9498 36.0958C31.5998 36.1558 31.2998 36.1758 31.0298 36.1758ZM23.3398 31.8958C24.6298 33.0558 25.9798 34.0057 27.3598 34.7357C27.9898 35.0657 28.7698 35.4357 29.8098 35.6357C30.3398 35.7357 30.9998 35.8658 31.8498 35.6958C32.5898 35.5558 33.1498 35.2558 33.4898 35.0358C33.7898 34.8358 34.2098 34.5658 34.5298 34.0558C34.6498 33.8558 34.8198 33.5358 34.9098 33.1158C34.9698 32.8458 34.9898 32.5558 34.9598 32.2758C34.9498 32.1958 34.9098 32.1258 34.8398 32.0958L31.2998 30.3158C31.2298 30.2858 31.1498 30.2957 31.0998 30.3557C30.7898 30.6857 30.4698 30.9757 30.1698 31.2657C29.9198 31.5057 29.6598 31.7458 29.4098 32.0058C29.3098 32.1158 29.1798 32.1958 29.0398 32.2458C28.9098 32.2958 28.7598 32.3557 28.5798 32.3257C27.8298 32.2057 27.3198 31.8158 26.9798 31.5658C26.2998 31.0458 25.6098 30.4758 24.9498 29.8658L24.7898 29.7258C24.1698 29.1658 23.5798 28.5758 23.0498 27.9958C22.7598 27.6858 22.3298 27.2058 22.1398 26.4758C22.0898 26.2958 22.1398 26.1358 22.1698 26.0258C22.2098 25.8658 22.2798 25.7358 22.3798 25.6258C22.6198 25.3458 22.8298 25.0657 23.0398 24.7957C23.2998 24.4657 23.5598 24.1258 23.8598 23.7858C23.9098 23.7258 23.9198 23.6458 23.8798 23.5758L21.7698 20.2158C21.7298 20.1558 21.6598 20.1158 21.5798 20.1158C21.2998 20.1158 21.0198 20.1658 20.7498 20.2458C20.4198 20.3458 20.1098 20.5058 19.8498 20.7158C19.3698 21.0858 19.1398 21.5258 18.9698 21.8458C18.6998 22.3658 18.5198 22.9458 18.4698 23.5458C18.3898 24.4158 18.5798 25.0558 18.7298 25.5658C19.0298 26.5758 19.4598 27.3158 19.8498 27.9158C20.7398 29.2658 21.8698 30.5657 23.1998 31.7657L23.3398 31.8958Z" fill="#99FFFF"/>
<path d="M36.5499 15.5057C33.3899 13.0057 29.4299 11.8858 25.3799 12.3458C21.3299 12.8158 17.7299 14.8058 15.2299 17.9658C11.1099 23.1658 10.8799 30.4757 14.5899 35.9257L12.0399 41.0258C11.8999 41.2958 11.9399 41.6257 12.1399 41.8557C12.2899 42.0257 12.4999 42.1157 12.7099 42.1157C12.7899 42.1157 12.8699 42.1057 12.9499 42.0757L18.8899 40.1258C21.4099 41.7558 24.2599 42.5457 27.0899 42.5457C31.5899 42.5457 36.0499 40.5658 39.0199 36.8158C44.2199 30.2658 43.1099 20.7057 36.5499 15.5057ZM37.8299 35.8857C33.4599 41.3957 25.5199 42.6557 19.6499 38.8257C19.4599 38.5757 19.1299 38.4558 18.8199 38.5658L14.1999 40.0857L16.0599 36.3758C16.1599 36.2458 16.2199 36.0958 16.2299 35.9358C16.2399 35.8758 16.2299 35.8158 16.2199 35.7558C16.2199 35.7458 16.2199 35.7457 16.2199 35.7357C16.1899 35.5657 16.1099 35.4058 15.9799 35.2858C12.4899 30.3558 12.6599 23.6558 16.4199 18.9158C18.6699 16.0758 21.9199 14.2758 25.5599 13.8558C29.1999 13.4358 32.7699 14.4458 35.6099 16.6958C41.5199 21.3658 42.5199 29.9857 37.8299 35.8857Z" fill="#99FFFF"/>
<path d="M27.1201 54.1558C12.3701 54.1558 0.370117 42.1558 0.370117 27.4058C0.370117 12.6558 12.3701 0.655762 27.1201 0.655762C41.8701 0.655762 53.8701 12.6558 53.8701 27.4058C53.8701 42.1458 41.8701 54.1558 27.1201 54.1558ZM27.1201 2.15576C13.2001 2.15576 1.88012 13.4758 1.88012 27.3958C1.88012 41.3158 13.2001 52.6357 27.1201 52.6357C41.0401 52.6357 52.3601 41.3158 52.3601 27.3958C52.3601 13.4758 41.0401 2.15576 27.1201 2.15576Z" fill="#99FFFF"/>
</svg>
