<svg width="285" height="285" viewBox="0 0 285 285" fill="none" xmlns="http://www.w3.org/2000/svg">
<path d="M182.895 178.503C183.378 177.737 184.507 175.803 185.071 173.144C185.474 171.29 185.474 169.638 185.353 168.389C185.272 167.583 184.829 166.898 184.104 166.535C177.818 163.392 171.532 160.249 165.246 157.066C164.481 156.663 163.513 156.865 162.909 157.469C159.887 160.652 156.905 163.191 153.883 166.253C153.44 166.696 152.916 167.059 152.312 167.301C151.788 167.502 151.103 167.784 150.418 167.664C146.832 167.099 144.414 165.367 142.359 163.795C138.088 160.572 134.461 157.429 131.601 154.81C128.699 152.231 125.194 148.887 121.527 144.897C119.794 143.004 117.82 140.747 116.934 137.242C116.772 136.557 116.974 135.872 117.095 135.307C117.256 134.703 117.578 134.139 117.981 133.655C120.761 130.351 122.978 127.168 125.879 123.864C126.443 123.179 126.524 122.212 126.08 121.487C122.333 115.523 118.586 109.559 114.879 103.636C114.476 102.951 113.71 102.589 112.944 102.589C111.695 102.589 110.043 102.75 108.23 103.354C105.611 104.16 103.798 105.45 103.072 106.014C100.373 108.109 99.0832 110.486 98.0759 112.38C97.3103 113.831 95.6985 117.215 95.2956 121.809C94.8524 126.523 95.8597 130.069 96.7059 133.011C98.2774 138.37 100.574 142.359 102.831 145.824C106.094 150.78 111.695 158.315 120.882 166.576C129.989 174.916 138.048 179.792 143.286 182.572C146.912 184.506 151.143 186.4 156.623 187.448C159.645 188.012 163.231 188.697 167.906 187.811C172.459 186.924 175.642 185.03 177.052 184.144C178.825 182.895 181.082 181.404 182.895 178.503Z" fill="#20A6A3" stroke="#20A6A3" stroke-width="4.02941" stroke-miterlimit="10"/>
<path d="M192.767 79.1374C175.964 65.8001 154.81 59.8366 133.293 62.3348C111.735 64.833 92.5555 75.4707 79.2182 92.2733C57.2579 119.955 56.0491 158.879 75.7932 187.931L62.1738 215.09C61.4485 216.54 61.6499 218.313 62.7379 219.522C63.5035 220.408 64.6317 220.932 65.8002 220.932C66.2032 220.932 66.6464 220.852 67.0493 220.731L98.6802 210.335C112.098 218.998 127.289 223.229 142.359 223.229C166.334 223.229 190.067 212.672 205.903 192.726C233.585 157.791 227.702 106.819 192.767 79.1374ZM199.577 187.69C176.287 217.064 134.018 223.753 102.75 203.364C101.743 202.034 100.01 201.39 98.3176 201.954L73.6979 210.053L83.6102 190.309C84.1743 189.624 84.4564 188.818 84.4967 187.931C84.537 187.609 84.4967 187.287 84.4564 186.964C84.4564 186.924 84.4564 186.884 84.4564 186.843C84.3355 185.917 83.8923 185.111 83.167 184.466C64.5914 158.194 65.4779 122.534 85.504 97.2698C97.5117 82.1595 114.798 72.5695 134.179 70.313C153.561 68.0969 172.62 73.4157 187.73 85.4233C219.2 110.406 224.519 156.26 199.577 187.69Z" fill="#20A6A3"/>
<path d="M142.48 285C63.9064 285 0 221.053 0 142.48C0 63.9064 63.9064 0 142.48 0C221.053 0 284.96 63.9064 284.96 142.48C285 221.053 221.053 285 142.48 285ZM142.48 8.05882C68.379 8.05882 8.05881 68.3791 8.05881 142.48C8.05881 216.581 68.379 276.901 142.48 276.901C216.581 276.901 276.901 216.581 276.901 142.48C276.901 68.3791 216.621 8.05882 142.48 8.05882Z" fill="#20A6A3"/>
</svg>
