<svg width="316" height="316" viewBox="0 0 316 316" fill="none" xmlns="http://www.w3.org/2000/svg">
<path d="M158 0C70.8745 0 0 70.8745 0 158C0 245.125 70.8745 316 158 316C245.125 316 316 245.125 316 158C316 70.8745 245.125 0 158 0ZM129.88 188.545V154.512H156.596V114.352C156.596 97.8885 161.148 85.9768 170.55 78.0215C177.91 71.7679 191.693 64.2806 215.134 64.2806L240.276 65.2165V94.6128H216.24C210.284 94.6128 205.604 96.5272 202.328 100.313C199.223 103.887 197.649 108.524 197.649 114.012V154.554H246.529L239.808 188.588H197.649V301.493C184.333 305.109 170.465 306.854 156.596 306.726V188.545H129.88ZM206.157 299.494V197.053H246.785L256.867 146.003H206.157V114.012C206.157 110.566 207.008 107.886 208.752 105.886C210.369 104.057 212.794 103.121 216.24 103.121H248.784V57.0059L215.304 55.7722C189.098 55.7722 173.485 64.3656 165.062 71.5552C153.831 81.1271 148.13 95.5062 148.13 114.352V146.003H121.414V197.053H148.13V307.109C70.2789 302.004 8.50835 237.085 8.50835 158C8.50835 75.5541 75.5541 8.50835 158 8.50835C240.446 8.50835 307.492 75.5541 307.492 158C307.492 223.557 265.035 279.372 206.157 299.494Z" fill="#20A6A3"/>
</svg>
