<svg width="306" height="306" viewBox="0 0 306 306" fill="none" xmlns="http://www.w3.org/2000/svg">
<path d="M225.756 80.2008C205.457 55.314 169.447 52.1112 140.232 59.1228C113.398 65.5717 91.7568 85.1782 86.1303 112.748C83.2304 126.945 84.3124 142.656 94.1806 154.039C97.9028 158.324 107.338 167.629 113.181 161.96C116.341 158.887 115.908 152.178 115.475 148.196C102.967 134.173 104.308 113.268 114.09 98.1194C123.699 83.2738 141.834 75.31 159.06 74.3146C176.978 73.2758 194.767 76.8249 205.717 92.4062C215.369 106.126 213.335 123.569 210.132 138.068C206.193 155.943 184.812 185.591 162.955 168.841C150.447 159.233 158.41 144.128 162.738 132.615C165.595 125.04 169.058 116.168 165.941 108.161C165.032 105.823 163.431 103.443 161.483 101.668C158.583 97.7731 152.351 97.6433 151.052 97.6C143.132 97.4269 137.722 103.356 136.337 104.871C129.195 112.748 129.671 123.266 129.931 128.503C130.234 134.735 131.792 139.713 133.047 142.786C127.637 163.994 122.27 185.202 116.86 206.41C116.341 210.262 115.994 214.417 115.821 218.831C115.475 228.397 116.168 242.723 117.293 250.037C119.154 248.739 134.995 228.483 134.995 228.483L149.191 177.714C151.399 180.397 154.082 182.821 157.242 184.899C182.345 201.259 217.057 182.821 230.171 159.579C243.805 135.515 243.761 102.274 225.756 80.2008Z" fill="#20A6A3"/>
<path d="M153 301.672C235.109 301.672 301.672 235.109 301.672 153C301.672 70.8908 235.109 4.32812 153 4.32812C70.8908 4.32812 4.32812 70.8908 4.32812 153C4.32812 235.109 70.8908 301.672 153 301.672Z" stroke="#20A6A3" stroke-width="8.65629" stroke-miterlimit="10"/>
</svg>
