<svg width="99" height="91" viewBox="0 0 99 91" fill="none" xmlns="http://www.w3.org/2000/svg">
<path d="M58.6625 0.0568662C62.9837 -0.241634 63.4385 0.639653 64.263 1.09451C66.9921 2.61544 69.1811 6.56702 69.1811 6.56702C70.5599 10.547 70.2045 10.2201 70.2614 12.3949C70.3609 16.1475 68.8826 19.7437 67.8592 23.3257C67.845 23.3683 67.8592 25.5431 67.319 32.0106C67.319 32.0106 69.636 34.953 72.1661 35.3226C75.3643 35.7774 78.5768 34.3134 83.0401 34.3844C87.4891 34.4555 89.5502 34.9956 90.1614 35.2657C91.0996 35.6921 93.6155 35.9622 95.1933 38.2223C98.7185 43.2399 95.5487 47.4332 95.1649 48.0017C95.5629 48.3571 98.093 51.996 98.2352 52.7777C98.4484 53.9433 98.8037 55.1515 97.7519 58.6198C97.3254 60.027 96.2878 60.9225 95.5202 61.5764C95.705 61.9602 96.7569 65.1868 96.6432 67.2479C96.6005 68.1292 96.5294 69.4085 95.9182 70.7588C94.8237 73.2321 92.6347 74.4546 91.6824 74.9236C91.7961 75.3785 92.1941 78.7899 91.8387 80.3535C91.8387 80.3535 91.2844 82.8126 89.4365 84.831C86.9916 87.4891 83.4949 88.0008 81.3628 88.2709C70.2188 89.6781 64.0071 89.1522 64.0071 89.1522C58.563 88.6831 50.5462 88.0719 39.9423 87.5459C37.1421 75.3643 34.3418 63.1826 31.5416 51.0009C32.4656 50.5887 33.1621 50.0912 33.6169 49.7217C34.1002 49.3237 35.1521 48.4424 35.8486 47.0067C36.3176 46.0259 36.4171 45.2157 36.4882 44.8461C36.9715 42.2023 39.8144 40.5819 42.0034 38.6061C43.6096 37.1562 43.8512 34.4413 46.8789 29.0114C48.613 25.9127 49.3522 23.4963 50.3898 21.2504C53.6022 14.3991 51.9249 15.92 53.2753 13.7026C53.5454 13.262 54.185 6.83709 54.0713 5.5578C53.9576 3.99423 54.2134 0.369581 58.6625 0.0568662Z" fill="#D3CBFF"/>
<path d="M6.5244 54.9526C9.75105 54.9811 12.9777 55.0095 16.2043 55.0379C16.4744 55.0948 16.9293 55.2369 17.3983 55.5212C17.3983 55.5212 18.3649 56.104 19.0756 57.3549C19.829 58.691 20.8951 62.7563 21.6342 68.3141C23.0699 75.1654 24.5197 82.0167 25.9554 88.868C25.8985 89.1238 25.7421 89.6498 25.3157 90.1473C24.804 90.7301 24.207 90.9433 23.9511 91.0286C16.5455 91.0001 9.12562 90.9717 1.71996 90.9433C1.39303 90.858 0.824462 90.6448 0.440676 90.1473C-0.142111 89.3655 3.22728e-05 88.342 0.0568895 87.9725C0.298533 86.1815 1.71996 73.9856 3.7384 57.1843C3.82368 56.9 4.02268 56.3314 4.5344 55.8197C5.30197 55.0521 6.25433 54.9669 6.5244 54.9526Z" fill="#D3CBFF"/>
</svg>
