<svg width="79" height="83" viewBox="0 0 79 83" fill="none" xmlns="http://www.w3.org/2000/svg">
<path d="M65.853 24.886C62.5524 24.886 59.5497 23.5832 57.3286 21.4614L25.1417 37.7905C25.1417 37.9394 25.1666 38.0759 25.1666 38.2248C25.1666 39.2175 25.0301 40.1853 24.8067 41.1159L57.949 60.1749C60.0956 58.4005 62.8502 57.3334 65.8406 57.3334C72.6775 57.3334 78.2364 62.8923 78.2364 69.7292C78.2364 76.5661 72.6775 82.125 65.8406 82.125C59.0037 82.125 53.4448 76.5661 53.4448 69.7292C53.4448 69.0468 53.5193 68.3767 53.6185 67.7191L19.9303 48.3251C17.9078 49.7644 15.4385 50.6206 12.7708 50.6206C5.93387 50.6206 0.375 45.0617 0.375 38.2248C0.375 31.3879 5.93387 25.829 12.7708 25.829C16.3319 25.829 19.5332 27.3428 21.7915 29.75L53.5069 13.6566C53.4697 13.2719 53.4448 12.8873 53.4448 12.4902C53.4448 5.65332 59.0037 0.0944519 65.8406 0.0944519C72.6775 0.0944519 78.2364 5.65332 78.2364 12.4902C78.2488 19.3271 72.6775 24.886 65.853 24.886Z" fill="#D3CBFF"/>
</svg>
