<svg width="726" height="169" viewBox="0 0 726 169" fill="none" xmlns="http://www.w3.org/2000/svg">
<path d="M100.283 3.96943C95.3497 -0.858501 87.4356 -0.772033 82.6064 4.16257L3.91075 84.5766C-0.918411 89.5113 -0.833935 97.4254 4.09943 102.253C9.0328 107.081 16.9469 106.995 21.776 102.06L91.7278 30.581L163.189 100.515C168.122 105.343 176.036 105.257 180.866 100.322C185.695 95.3874 185.61 87.4733 180.677 82.6453L100.283 3.96943ZM105.565 155.759L104.038 12.7678L79.0398 13.0409L80.5662 156.033L105.565 155.759Z" fill="#99FFFF"/>
<line x1="12.5" y1="-12.5" x2="632.008" y2="-12.5" transform="matrix(-0.999974 0.0070343 0.0335439 -0.999448 725.773 138.655)" stroke="#99FFFF" stroke-width="25" stroke-linecap="round"/>
</svg>
